<svg width="20" height="21" viewBox="0 0 20 21" fill="none" xmlns="http://www.w3.org/2000/svg">
<path d="M19.5 6.68994C19.5 4.15994 17.5 2.08995 15 1.94995V1.75C15 1.2 14.55 0.75 14 0.75C13.45 0.75 13 1.2 13 1.75V1.91992H7V1.75C7 1.2 6.55 0.75 6 0.75C5.45 0.75 5 1.2 5 1.75V1.94995C2.5 2.08995 0.5 4.15994 0.5 6.68994V8.58008C0.5 8.61008 0.509989 8.63992 0.519989 8.66992C0.509989 8.68992 0.5 8.72 0.5 8.75V15.75C0.5 18.23 2.52 20.25 5 20.25H15C17.48 20.25 19.5 18.23 19.5 15.75V8.75C19.5 8.72 19.49 8.68992 19.48 8.66992C19.49 8.63992 19.5 8.61008 19.5 8.58008V6.68994ZM6 16.75C5.45 16.75 5 16.3 5 15.75C5 15.2 5.45 14.75 6 14.75C6.55 14.75 7 15.2 7 15.75C7 16.3 6.55 16.75 6 16.75ZM6 12.75C5.45 12.75 5 12.3 5 11.75C5 11.2 5.45 10.75 6 10.75C6.55 10.75 7 11.2 7 11.75C7 12.3 6.55 12.75 6 12.75ZM10 16.75C9.45 16.75 9 16.3 9 15.75C9 15.2 9.45 14.75 10 14.75C10.55 14.75 11 15.2 11 15.75C11 16.3 10.55 16.75 10 16.75ZM10 12.75C9.45 12.75 9 12.3 9 11.75C9 11.2 9.45 10.75 10 10.75C10.55 10.75 11 11.2 11 11.75C11 12.3 10.55 12.75 10 12.75ZM14 16.75C13.45 16.75 13 16.3 13 15.75C13 15.2 13.45 14.75 14 14.75C14.55 14.75 15 15.2 15 15.75C15 16.3 14.55 16.75 14 16.75ZM14 12.75C13.45 12.75 13 12.3 13 11.75C13 11.2 13.45 10.75 14 10.75C14.55 10.75 15 11.2 15 11.75C15 12.3 14.55 12.75 14 12.75ZM17.5 8.25H2.5V6.68994C2.5 5.23994 3.62001 4.05994 5.04001 3.93994C5.13001 4.39994 5.52 4.75 6 4.75C6.49 4.75 6.88 4.38992 6.97 3.91992H13.03C13.12 4.38992 13.51 4.75 14 4.75C14.48 4.75 14.87 4.39994 14.96 3.93994C16.38 4.05994 17.5 5.24994 17.5 6.68994V8.25Z" fill="#5B6172"/>
<path d="M19.5 6.68994C19.5 4.15994 17.5 2.08995 15 1.94995V1.75C15 1.2 14.55 0.75 14 0.75C13.45 0.75 13 1.2 13 1.75V1.91992H7V1.75C7 1.2 6.55 0.75 6 0.75C5.45 0.75 5 1.2 5 1.75V1.94995C2.5 2.08995 0.5 4.15994 0.5 6.68994V8.58008C0.5 8.61008 0.509989 8.63992 0.519989 8.66992C0.509989 8.68992 0.5 8.72 0.5 8.75V15.75C0.5 18.23 2.52 20.25 5 20.25H15C17.48 20.25 19.5 18.23 19.5 15.75V8.75C19.5 8.72 19.49 8.68992 19.48 8.66992C19.49 8.63992 19.5 8.61008 19.5 8.58008V6.68994ZM6 16.75C5.45 16.75 5 16.3 5 15.75C5 15.2 5.45 14.75 6 14.75C6.55 14.75 7 15.2 7 15.75C7 16.3 6.55 16.75 6 16.75ZM6 12.75C5.45 12.75 5 12.3 5 11.75C5 11.2 5.45 10.75 6 10.75C6.55 10.75 7 11.2 7 11.75C7 12.3 6.55 12.75 6 12.75ZM10 16.75C9.45 16.75 9 16.3 9 15.75C9 15.2 9.45 14.75 10 14.75C10.55 14.75 11 15.2 11 15.75C11 16.3 10.55 16.75 10 16.75ZM10 12.75C9.45 12.75 9 12.3 9 11.75C9 11.2 9.45 10.75 10 10.75C10.55 10.75 11 11.2 11 11.75C11 12.3 10.55 12.75 10 12.75ZM14 16.75C13.45 16.75 13 16.3 13 15.75C13 15.2 13.45 14.75 14 14.75C14.55 14.75 15 15.2 15 15.75C15 16.3 14.55 16.75 14 16.75ZM14 12.75C13.45 12.75 13 12.3 13 11.75C13 11.2 13.45 10.75 14 10.75C14.55 10.75 15 11.2 15 11.75C15 12.3 14.55 12.75 14 12.75ZM17.5 8.25H2.5V6.68994C2.5 5.23994 3.62001 4.05994 5.04001 3.93994C5.13001 4.39994 5.52 4.75 6 4.75C6.49 4.75 6.88 4.38992 6.97 3.91992H13.03C13.12 4.38992 13.51 4.75 14 4.75C14.48 4.75 14.87 4.39994 14.96 3.93994C16.38 4.05994 17.5 5.24994 17.5 6.68994V8.25Z" fill="#1B2C56"/>
</svg>
