<svg width="19" height="21" viewBox="0 0 19 21" fill="none" xmlns="http://www.w3.org/2000/svg">
<path d="M19 6.68994C19 4.15994 17 2.08995 14.5 1.94995V1.75C14.5 1.2 14.05 0.75 13.5 0.75C12.95 0.75 12.5 1.2 12.5 1.75V1.91992H6.5V1.75C6.5 1.2 6.05 0.75 5.5 0.75C4.95 0.75 4.5 1.2 4.5 1.75V1.94995C2 2.08995 0 4.15994 0 6.68994V8.58008C0 8.61008 0.00998901 8.63992 0.019989 8.66992C0.00998901 8.68992 0 8.72 0 8.75V15.75C0 18.23 2.02 20.25 4.5 20.25H14.5C16.98 20.25 19 18.23 19 15.75V8.75C19 8.72 18.99 8.68992 18.98 8.66992C18.99 8.63992 19 8.61008 19 8.58008V6.68994ZM5.5 16.75C4.95 16.75 4.5 16.3 4.5 15.75C4.5 15.2 4.95 14.75 5.5 14.75C6.05 14.75 6.5 15.2 6.5 15.75C6.5 16.3 6.05 16.75 5.5 16.75ZM5.5 12.75C4.95 12.75 4.5 12.3 4.5 11.75C4.5 11.2 4.95 10.75 5.5 10.75C6.05 10.75 6.5 11.2 6.5 11.75C6.5 12.3 6.05 12.75 5.5 12.75ZM9.5 16.75C8.95 16.75 8.5 16.3 8.5 15.75C8.5 15.2 8.95 14.75 9.5 14.75C10.05 14.75 10.5 15.2 10.5 15.75C10.5 16.3 10.05 16.75 9.5 16.75ZM9.5 12.75C8.95 12.75 8.5 12.3 8.5 11.75C8.5 11.2 8.95 10.75 9.5 10.75C10.05 10.75 10.5 11.2 10.5 11.75C10.5 12.3 10.05 12.75 9.5 12.75ZM13.5 16.75C12.95 16.75 12.5 16.3 12.5 15.75C12.5 15.2 12.95 14.75 13.5 14.75C14.05 14.75 14.5 15.2 14.5 15.75C14.5 16.3 14.05 16.75 13.5 16.75ZM13.5 12.75C12.95 12.75 12.5 12.3 12.5 11.75C12.5 11.2 12.95 10.75 13.5 10.75C14.05 10.75 14.5 11.2 14.5 11.75C14.5 12.3 14.05 12.75 13.5 12.75ZM17 8.25H2V6.68994C2 5.23994 3.12001 4.05994 4.54001 3.93994C4.63001 4.39994 5.02 4.75 5.5 4.75C5.99 4.75 6.38 4.38992 6.47 3.91992H12.53C12.62 4.38992 13.01 4.75 13.5 4.75C13.98 4.75 14.37 4.39994 14.46 3.93994C15.88 4.05994 17 5.24994 17 6.68994V8.25Z" fill="#98A1B6"/>
</svg>
