<svg width="23" height="23" viewBox="0 0 23 23" fill="none" xmlns="http://www.w3.org/2000/svg">
<path d="M21.7915 11.2917V21.2917C21.7915 21.4917 21.6715 21.6817 21.4815 21.7517C21.4215 21.7817 21.3515 21.7917 21.2915 21.7917C21.1615 21.7917 21.0315 21.7418 20.9315 21.6418L19.1215 19.7917H10.2915C8.3615 19.7917 6.7915 18.2217 6.7915 16.2917H14.2915C17.0515 16.2917 19.2915 14.0517 19.2915 11.2917V7.94165C20.7315 8.37165 21.7915 9.71175 21.7915 11.2917ZM17.7915 11.2917V6.29175C17.7915 4.36175 16.2215 2.79175 14.2915 2.79175H6.2915C4.3615 2.79175 2.7915 4.36175 2.7915 6.29175V16.2917C2.7915 16.4917 2.9115 16.6817 3.1015 16.7517C3.1615 16.7817 3.2315 16.7917 3.2915 16.7917C3.4215 16.7917 3.55149 16.7418 3.65149 16.6418L5.46152 14.7917H14.2915C16.2215 14.7917 17.7915 13.2217 17.7915 11.2917Z" fill="#5B6172"/>
<path d="M21.7915 11.2917V21.2917C21.7915 21.4917 21.6715 21.6817 21.4815 21.7517C21.4215 21.7817 21.3515 21.7917 21.2915 21.7917C21.1615 21.7917 21.0315 21.7418 20.9315 21.6418L19.1215 19.7917H10.2915C8.3615 19.7917 6.7915 18.2217 6.7915 16.2917H14.2915C17.0515 16.2917 19.2915 14.0517 19.2915 11.2917V7.94165C20.7315 8.37165 21.7915 9.71175 21.7915 11.2917ZM17.7915 11.2917V6.29175C17.7915 4.36175 16.2215 2.79175 14.2915 2.79175H6.2915C4.3615 2.79175 2.7915 4.36175 2.7915 6.29175V16.2917C2.7915 16.4917 2.9115 16.6817 3.1015 16.7517C3.1615 16.7817 3.2315 16.7917 3.2915 16.7917C3.4215 16.7917 3.55149 16.7418 3.65149 16.6418L5.46152 14.7917H14.2915C16.2215 14.7917 17.7915 13.2217 17.7915 11.2917Z" fill="#98A1B6"/>
</svg>
