<svg width="22" height="23" viewBox="0 0 22 23" fill="none" xmlns="http://www.w3.org/2000/svg">
<path d="M21.292 11.2917V21.2917C21.292 21.4917 21.172 21.6817 20.982 21.7517C20.922 21.7817 20.852 21.7917 20.792 21.7917C20.662 21.7917 20.532 21.7418 20.432 21.6418L18.622 19.7917H9.79199C7.86199 19.7917 6.29199 18.2217 6.29199 16.2917H13.792C16.552 16.2917 18.792 14.0517 18.792 11.2917V7.94165C20.232 8.37165 21.292 9.71175 21.292 11.2917ZM17.292 11.2917V6.29175C17.292 4.36175 15.722 2.79175 13.792 2.79175H5.79199C3.86199 2.79175 2.29199 4.36175 2.29199 6.29175V16.2917C2.29199 16.4917 2.41199 16.6817 2.60199 16.7517C2.66199 16.7817 2.73199 16.7917 2.79199 16.7917C2.92199 16.7917 3.05198 16.7418 3.15198 16.6418L4.96201 14.7917H13.792C15.722 14.7917 17.292 13.2217 17.292 11.2917Z" fill="#5B6172"/>
<path d="M21.292 11.2917V21.2917C21.292 21.4917 21.172 21.6817 20.982 21.7517C20.922 21.7817 20.852 21.7917 20.792 21.7917C20.662 21.7917 20.532 21.7418 20.432 21.6418L18.622 19.7917H9.79199C7.86199 19.7917 6.29199 18.2217 6.29199 16.2917H13.792C16.552 16.2917 18.792 14.0517 18.792 11.2917V7.94165C20.232 8.37165 21.292 9.71175 21.292 11.2917ZM17.292 11.2917V6.29175C17.292 4.36175 15.722 2.79175 13.792 2.79175H5.79199C3.86199 2.79175 2.29199 4.36175 2.29199 6.29175V16.2917C2.29199 16.4917 2.41199 16.6817 2.60199 16.7517C2.66199 16.7817 2.73199 16.7917 2.79199 16.7917C2.92199 16.7917 3.05198 16.7418 3.15198 16.6418L4.96201 14.7917H13.792C15.722 14.7917 17.292 13.2217 17.292 11.2917Z" fill="#1B2C56"/>
</svg>
