<svg width="99" height="118" viewBox="0 0 99 118" fill="none" xmlns="http://www.w3.org/2000/svg">
<path d="M39.4968 44.5358C39.4968 44.5358 34.0599 50.836 13.9063 58.9413C16.5982 60.9764 29.6502 73.2937 30.5711 74.4086C32.6786 76.9393 31.1378 79.0098 30.4649 81.7529C30.1317 83.7573 29.4738 85.694 28.5168 87.4868C28.4248 87.6841 28.2771 87.8502 28.0918 87.9646C27.5782 88.23 27.0115 87.7345 26.7281 87.239C25.988 85.3963 25.6441 83.4186 25.7187 81.4343C25.2405 76.6384 20.6183 76.1252 17.0764 73.9484C6.7162 67.6306 -2.40427 62.463 0.570949 55.7912C4.04204 48.0752 23.7352 32.3955 29.2252 31.7407C34.7152 31.086 44.4555 41.3149 39.4968 44.5358Z" fill="#FBB99B"/>
<path d="M36.9288 14.2739C36.4232 13.6112 36.1776 12.7867 36.2381 11.9556C35.8536 9.88031 36.1583 7.73631 37.1059 5.85008C37.7075 4.97648 38.5765 4.32142 39.5823 3.98318C40.5881 3.64495 41.6766 3.64179 42.6844 3.97418C43.1269 3.00608 43.7897 2.15471 44.6199 1.48795C45.4501 0.821204 46.4247 0.357525 47.466 0.133899C48.5135 -0.0680191 49.5923 -0.0412998 50.6285 0.212226C51.6648 0.465752 52.6339 0.940094 53.4696 1.60276C54.2502 2.36006 55.0912 3.05254 55.9844 3.67333C56.4377 3.97631 56.9784 4.12145 57.5227 4.08626C58.067 4.05106 58.5845 3.83751 58.995 3.47866C59.3737 4.25454 59.4556 5.14197 59.2252 5.97396C58.8533 6.89421 57.8616 7.35434 57.2063 8.06223C56.4466 9.24391 56.1037 10.6454 56.2323 12.0441C56.1449 12.7588 55.9353 13.4532 55.6125 14.097C55.34 14.9251 55.0146 15.7349 54.6384 16.5215C54.4967 16.7515 54.0363 17.4594 53.8769 16.8223C52.9678 16.7515 52.0646 16.663 51.1673 16.5569C48.0858 16.256 45.0221 15.9198 41.9583 15.495C40.6832 15.3181 39.4081 15.1411 38.1684 14.8402C37.7144 14.7579 37.2882 14.5632 36.9288 14.2739Z" fill="#3B2645"/>
<path d="M54.3731 13.7432C54.5558 13.5068 54.7919 13.3169 55.0621 13.1892C55.3322 13.0614 55.6288 12.9992 55.9276 13.0079C56.2263 13.0165 56.5188 13.0956 56.7811 13.2388C57.0434 13.382 57.2682 13.5851 57.4369 13.8317C58.9068 15.7253 56.1972 19.1408 54.196 19.247C54.1334 17.4105 54.1926 15.5719 54.3731 13.7432Z" fill="#E0855C"/>
<path d="M25.1524 34.1834C27.3751 39.795 29.0938 45.593 30.2882 51.5089C30.2882 52.0752 30.4653 52.6062 30.5361 53.1371C31.0143 56.6765 32.3071 74.179 32.4487 76.922C32.4418 77.0458 32.4418 77.1699 32.4487 77.2937C46.1914 81.5233 60.7842 78.1431 60.7842 78.1431L60.8904 77.3822C61.3155 73.9843 63.1041 59.9151 64.2907 47.7571C64.8928 41.5631 65.3533 35.847 65.3887 32.2898C65.3887 30.9802 62.378 31.0156 60.2883 30.6617C57.7955 30.2685 55.2828 30.0144 52.7617 29.9007H51.9825L51.8585 27.8655L51.5397 26.4852L51.3095 22.8219L50.6011 22.9103C50.1549 22.9714 49.7055 23.0068 49.2552 23.0165C48.7048 23.0243 48.1546 22.9947 47.6082 22.928L46.8467 22.8396L45.8195 22.6272C45.2528 22.4856 44.7215 22.3086 44.2079 22.1317C44.0489 22.0882 43.8947 22.0289 43.7475 21.9547H43.6235L43.2693 21.7954C42.6151 21.515 41.987 21.1774 41.3921 20.7867C41.1049 20.6126 40.8271 20.4236 40.5598 20.2204L40.4181 20.1142C40.3022 20.0448 40.1951 19.9616 40.0993 19.8664L39.9753 19.7603V20.2381C40.0816 21.4061 40.2056 22.8927 40.2233 24.3792C40.2233 25.3879 40.2233 26.3967 40.2233 27.2815C40.2233 28.7858 40.2233 29.883 40.2233 29.883C39.8929 29.8652 39.5619 29.8652 39.2315 29.883H39.143C37.7023 29.9064 36.2647 30.0247 34.8395 30.237C31.5586 30.7335 28.3852 31.7806 25.4534 33.334C25.3171 33.4231 25.2138 33.5544 25.1594 33.7079C25.105 33.8614 25.1025 34.0284 25.1524 34.1834Z" fill="#FBB99B"/>
<path d="M39.9756 19.7603C40.1895 21.0177 40.6772 22.2128 41.4042 23.2611C42.1313 24.3094 43.08 25.1852 44.1831 25.8267C45.2863 26.4683 46.517 26.8597 47.7883 26.9735C49.0596 27.0873 50.3403 26.9206 51.54 26.4852L51.3098 22.8219C49.3113 23.1415 47.2677 23.0339 45.314 22.5062C43.3602 21.9784 41.5407 21.0425 39.9756 19.7603Z" fill="#E0855C"/>
<path d="M54.1776 8.41627C55.1694 9.5135 55.1694 11.9557 55.1871 14.5041C55.1871 22.4678 52.7431 24.8746 48.6522 25.1224C44.5613 25.3702 40.3818 23.742 39.7974 16.2738C39.4786 12.5751 39.1244 9.19495 40.5058 7.6022C42.507 5.42545 51.1493 5.07151 54.1776 8.41627Z" fill="#FBB99B"/>
<path d="M40.3291 15.3708C40.3291 15.3708 39.1956 12.0437 37.1767 13.7249C35.1578 15.4062 37.7257 20.4676 40.7187 20.1844C40.7364 20.1844 41.25 16.5211 40.3291 15.3708Z" fill="#FBB99B"/>
<path d="M38.0445 15.2477C38.4979 15.4137 38.9006 15.6942 39.2134 16.0618C39.5701 16.3783 39.8593 16.7635 40.0634 17.1944C40.0662 17.2222 40.0606 17.2502 40.0475 17.2748C40.0343 17.2995 40.0142 17.3197 39.9896 17.333C39.965 17.3462 39.937 17.3519 39.9092 17.3493C39.8813 17.3467 39.8549 17.3359 39.8332 17.3183C39.5951 17.0647 39.3705 16.7989 39.1602 16.5219C39.0005 16.7182 38.7932 16.8705 38.5581 16.9643C38.381 16.9643 38.257 16.8051 38.3456 16.6458C38.4739 16.468 38.6365 16.3175 38.8237 16.2034C38.4984 15.9857 38.1905 15.7431 37.9028 15.4778C37.8831 15.455 37.8711 15.4265 37.8686 15.3965C37.8662 15.3665 37.8734 15.3364 37.8892 15.3108C37.905 15.2851 37.9286 15.2652 37.9565 15.2538C37.9844 15.2425 38.0153 15.2403 38.0445 15.2477Z" fill="#E0855C"/>
<path d="M51.6988 14.2208C51.6988 14.2208 52.3717 14.4863 52.3009 13.2652C52.2301 12.0441 51.7519 12.3095 51.7519 12.3095C51.7519 12.3095 51.2737 12.3095 51.3269 13.2475C51.38 14.1854 51.6988 14.2208 51.6988 14.2208Z" fill="#3B2645"/>
<path d="M44.7214 14.0084C44.7214 14.0084 45.4121 14.2739 45.3413 13.0528C45.2704 11.8317 44.7923 12.0971 44.7923 12.0971C44.7923 12.0971 44.3141 12.0971 44.3495 13.0351C44.385 13.973 44.7214 14.0084 44.7214 14.0084Z" fill="#3B2645"/>
<path d="M48.4753 17.3532C48.8295 17.3532 49.6087 17.5479 49.7858 17.1763C49.7553 16.3294 49.6124 15.4903 49.3608 14.681C49.0652 13.5925 48.8346 12.4874 48.6701 11.3716C48.6701 11.3716 48.6701 11.3716 48.7941 11.3716C49.4226 13.3482 49.8905 15.3722 50.1932 17.424C50.202 17.4488 50.2045 17.4753 50.2006 17.5013C50.1966 17.5273 50.1863 17.5519 50.1705 17.5729C50.1547 17.594 50.134 17.6108 50.1101 17.6218C50.0863 17.6329 50.06 17.6379 50.0338 17.6364C49.5202 17.6364 49.0066 17.6364 48.5107 17.6364C48.3336 17.6541 48.2982 17.3709 48.4753 17.3532Z" fill="#E0855C"/>
<path d="M51.0613 10.5042C51.5572 10.2565 52.4781 10.2211 52.8323 10.752C52.8448 10.7736 52.8513 10.7981 52.8513 10.8231C52.8512 10.8481 52.8445 10.8726 52.832 10.8941C52.8194 10.9157 52.8013 10.9335 52.7796 10.9459C52.7579 10.9582 52.7333 10.9646 52.7083 10.9644C52.4604 10.9644 52.2478 10.8228 51.9999 10.7874C51.7361 10.7792 51.4727 10.8151 51.2207 10.8936C50.9727 10.9113 50.8311 10.5927 51.0613 10.5042Z" fill="#3B2645"/>
<path d="M43.8006 10.9111C44.1017 10.2209 45.3236 10.1855 45.8195 10.6457C45.9435 10.7341 45.8195 10.9288 45.7309 10.9642C45.4191 10.9994 45.1042 10.9994 44.7923 10.9642C44.5294 10.9972 44.2728 11.0687 44.0308 11.1766C43.8891 11.1589 43.7298 11.0173 43.8006 10.9111Z" fill="#3B2645"/>
<path d="M50.1229 19.8839C48.6265 20.0257 47.1218 19.7176 45.8018 18.999C45.9881 19.4911 46.282 19.9354 46.6618 20.2997C47.0417 20.664 47.4981 20.9391 47.9978 21.105C49.4322 21.5297 50.1229 19.8839 50.1229 19.8839Z" fill="white"/>
<path d="M47.7845 85.1336C47.6246 87.9607 47.3231 90.7781 46.8813 93.5751C46.0666 99.1497 44.7915 105.485 43.3393 111.644C45.1839 102.586 42.9561 120.879 43.3393 111.644C43.8883 109.113 42.7903 114.493 43.3393 111.644L23.9653 112C23.9653 116.371 23.5579 107.116 23.9653 112C23.7705 114.513 23.9653 109.275 23.9653 112C23.9298 114.142 24.7445 94.9756 23.9653 112C24.0052 103.292 23.0374 118.569 23.965 109.91C26.2318 89.4694 30.2873 78.8157 30.2873 78.8157C35.8481 66.0029 44.2248 66.8878 46.9875 76.3381C47.7347 79.2063 48.0039 82.1779 47.7845 85.1336Z" fill="#FBB99B"/>
<path d="M69.5853 111.485C69.8863 107.627 69.5853 115.024 69.5853 111.485L50.264 111.485C50.9193 114.918 49.6088 108.547 50.264 111.485C50.6516 120.859 48.3767 102.295 50.264 111.485C48.9004 105.397 47.6253 99.0969 46.7221 93.5754C46.2617 90.443 45.9606 87.5761 45.8366 85.1339C45.6443 82.1547 45.9495 79.1643 46.7398 76.2853C49.538 66.835 57.8792 65.9679 63.44 78.7629C63.44 78.7629 67.3716 89.3812 69.5853 109.698C70.5264 118.409 69.5353 102.723 69.5853 111.485C69.5853 113.609 68.7706 92.9383 69.5853 109.698C69.8686 113.213 69.6325 107.58 69.5853 111.485Z" fill="#FBB99B"/>
<path d="M56.852 30.52C56.852 30.52 64.3786 26.9805 86.073 27.7946C86.073 27.7946 79.2016 15.1942 78.9891 11.8672C78.9891 11.8672 75.7837 14.9288 73.3397 12.2742C71.5688 10.2921 71.7459 7.88529 75.1107 5.92091C78.4755 3.95652 82.3717 2.70002 89.2784 12.6989C96.1852 22.6978 102.366 31.1394 96.9113 36.0061C90.5889 41.6515 66.2204 47.9163 60.943 46.2704C55.6655 44.6246 51.0078 31.334 56.852 30.52Z" fill="#FBB99B"/>
<path d="M63.6707 64.2153C62.5018 59.3486 57.1712 59.8795 57.1712 59.8795C57.3627 58.1699 57.4101 56.4472 57.3129 54.7296C57.3129 54.5173 57.3129 54.3226 57.3129 54.1102C57.2244 52.9245 57.1004 51.7034 56.941 50.4646C56.941 50.2522 56.941 50.0222 56.8525 49.7921C55.9623 43.722 54.5219 37.7452 52.549 31.9357C52.124 30.6261 51.8583 29.8651 51.8583 29.8651L51.5396 24.4675C51.5396 24.4675 52.7084 24.0605 55.3294 25.9894C56.2447 26.6617 57.1035 27.4074 57.8973 28.2193C61.1205 31.4225 65.1406 42.6248 67.7439 51.2256C67.8325 51.5087 67.921 51.7919 67.9918 52.0928C68.5054 53.8625 68.9482 55.3667 69.3201 56.7471C69.3201 57.0657 69.4794 57.3665 69.5503 57.6497C69.9576 59.2247 70.2587 60.4458 70.3649 61.1891C71.0202 65.401 64.8572 69.082 63.6707 64.2153Z" fill="#AB8DA8"/>
<path d="M34.3785 67.5421C33.4222 59.4368 28.6937 60.9057 28.6937 60.9057C28.5166 59.0475 28.5166 57.2424 28.5166 55.5258C28.5166 55.3134 28.5166 55.1187 28.5166 54.9064C28.5166 53.9861 28.5166 53.1366 28.5166 52.2164C28.5166 52.004 28.5166 51.774 28.5166 51.5616C29.2781 27.6704 40.3112 24.2903 40.3112 24.2903V29.7941C40.3112 29.7941 40.754 47.3674 41.4801 58.4635C41.4801 58.7643 41.4801 59.0652 41.4801 59.366C41.6217 61.4366 41.7988 63.224 41.9405 64.6752C41.9405 64.9583 41.9405 65.2238 41.9405 65.4716C41.9405 65.7193 42.0645 66.3033 42.1353 66.6042C43.4458 71.931 35.3348 75.7182 34.3785 67.5421Z" fill="#AB8DA8"/>
<path d="M55.2763 25.9894C53.7383 27.6223 52.7693 29.7079 52.5136 31.9357C52.0885 30.6261 51.8229 29.8651 51.8229 29.8651L51.5396 24.4675C51.5396 24.4675 52.6553 24.0605 55.2763 25.9894Z" fill="#826B80"/>
<path d="M42.0822 65.4011C40.8066 65.1669 39.6327 64.5496 38.7174 63.6314C36.9464 61.8617 36.5214 59.0478 34.4493 57.3666C32.7124 56.1495 30.6379 55.5059 28.5166 55.5261C28.5166 55.3137 28.5166 55.119 28.5166 54.9067C30.9559 54.8924 33.3259 55.7172 35.2286 57.2427C36.4457 58.6547 37.4536 60.2341 38.2215 61.9324C38.6495 62.6131 39.2104 63.2005 39.8707 63.6596C40.531 64.1187 41.2771 64.4402 42.0645 64.6047C42.0114 64.8879 42.0468 65.1533 42.0822 65.4011Z" fill="#E8CEE5"/>
<path d="M41.5332 59.3662C40.8013 59.0655 40.1204 58.6536 39.5143 58.1451C37.6605 56.3955 35.6033 54.8745 33.3868 53.6146C31.8427 52.9074 30.2009 52.4361 28.5166 52.2166C28.5166 52.0042 28.5166 51.7741 28.5166 51.5618C30.81 51.781 33.034 52.4676 35.0515 53.5792C36.5283 54.4463 37.9008 55.4795 39.1424 56.6586C39.8571 57.3291 40.6407 57.9223 41.4801 58.4283C41.4801 58.6937 41.5155 59.0654 41.5332 59.3662Z" fill="#E8CEE5"/>
<path d="M69.4967 57.6321C68.4707 57.9729 67.3869 58.1053 66.309 58.0214C63.9359 57.8268 60.394 55.1545 57.3125 54.7298C57.3125 54.5174 57.3125 54.3227 57.3125 54.1104C58.2956 54.2494 59.2587 54.5049 60.1815 54.8713C61.9215 55.7427 63.7348 56.4592 65.6006 57.0127C66.8197 57.2532 68.0815 57.1552 69.2488 56.7295C69.3374 57.0481 69.4259 57.3489 69.4967 57.6321Z" fill="#E8CEE5"/>
<path d="M67.9385 52.0748C67.0867 52.1485 66.2289 52.1068 65.3883 51.9509C63.1756 51.2753 60.9138 50.7724 58.6232 50.4467C58.0334 50.412 57.442 50.412 56.8522 50.4467C56.8522 50.2343 56.8522 50.0043 56.7637 49.7742C58.2779 49.5764 59.8139 49.6182 61.3151 49.8981C63.0917 50.4924 64.9168 50.9305 66.7696 51.2077C67.0586 51.2254 67.3484 51.2254 67.6374 51.2077C67.7791 51.4908 67.8677 51.774 67.9385 52.0748Z" fill="#E8CEE5"/>
<path d="M70.976 117.122C65.476 117.122 62.976 117.122 57.476 117.122C55.2967 117.305 51.1601 117.234 48.976 117.122L46.3933 97.1302L43.562 117.122C34.976 117.122 21 117.122 21 117.122C24.2833 86.6265 32.3141 74 32.3141 74C44.3213 77.8934 60.8975 74.1062 60.8975 74.1062C69.2919 85.5562 70.976 117.122 70.976 117.122Z" fill="#3B2645"/>
<path d="M46.5984 78.1609C45.9536 78.5939 45.4539 79.2105 45.1639 79.9306C44.5795 81.3995 45.3764 83.0099 44.7211 84.4611C44.2253 85.5052 43.2867 86.2308 42.9502 87.3457C42.6494 88.326 42.6494 89.3739 42.9502 90.3542C42.9502 90.6728 43.57 90.6197 43.5346 90.3542C43.3063 88.9922 43.57 87.5935 44.2784 86.4078C44.833 85.7889 45.2926 85.0911 45.642 84.3372C45.7893 83.838 45.8315 83.3138 45.766 82.7976C45.6672 82.0638 45.7166 81.3178 45.9113 80.6035C46.106 79.8891 46.442 79.2211 46.8994 78.6387C47.0057 78.2848 46.8109 77.9485 46.5984 78.1609Z" fill="#291B30"/>
<path d="M49.6622 83.098C49.0275 81.6201 48.9334 79.9662 49.3966 78.4259C49.413 78.3907 49.4148 78.3504 49.4015 78.3139C49.3882 78.2774 49.361 78.2477 49.3257 78.2313C49.2905 78.2148 49.2502 78.2131 49.2137 78.2263C49.1771 78.2396 49.1474 78.2669 49.1309 78.3021C48.5366 79.1468 48.2663 80.177 48.3694 81.2044C48.4757 82.5494 49.4674 83.7705 48.9538 85.0978C48.1392 87.1683 47.1829 88.8496 48.7236 90.9201C48.7571 90.954 48.8009 90.9757 48.8482 90.9817C48.8955 90.9877 48.9434 90.9776 48.9843 90.9531C49.0251 90.9286 49.0566 90.8911 49.0735 90.8466C49.0905 90.8021 49.092 90.7532 49.0778 90.7078C48.6797 89.9149 48.4979 89.0311 48.5507 88.1455C48.6036 87.26 48.8892 86.4041 49.3789 85.6641C49.6411 85.3226 49.8446 84.9398 49.981 84.5314C50.105 83.8059 49.9633 83.859 49.6622 83.098Z" fill="#291B30"/>
<path d="M53.5 117C51.3207 117.183 51.6841 117.112 49.5 117L46.917 97.0083C51.9318 108.9 51.1215 104.316 53.5 117Z" fill="#291B30"/>
</svg>
