<svg width="118" height="112" viewBox="0 0 118 112" fill="none" xmlns="http://www.w3.org/2000/svg">
<path d="M57.1318 20.7293C57.7163 20.2981 58.2161 19.7561 58.6047 19.1321C59.3252 18.2158 60.2947 17.543 61.3884 17.2002C61.8604 17.0282 62.3633 16.9659 62.8612 17.0177C63.643 17.2422 64.4025 17.5428 65.1295 17.9152C67.1473 18.6453 69.3419 17.7326 71.4775 17.6261C73.5951 17.4994 75.6862 18.1635 77.369 19.4972C77.976 19.8689 78.4529 20.4302 78.7309 21.1001C79.0088 21.77 79.0735 22.5138 78.9155 23.2241C78.7003 23.7019 78.377 24.1193 77.9729 24.441C77.2085 25.103 76.3356 25.6182 75.3953 25.9622C74.5273 26.1851 73.6907 26.5225 72.9062 26.9662C72.2693 27.4564 71.6776 28.0063 71.1388 28.609C69.7823 29.9265 68.0427 30.7447 66.1899 30.9364C64.3442 31.1223 62.4812 30.8993 60.7256 30.2823C60.007 30.0903 59.3381 29.7372 58.7667 29.2479C57.9419 28.4873 57.5 27.4682 56.5868 26.7836C55.6737 26.0991 54.7457 25.734 54.245 24.8061C54.068 24.4495 53.9843 24.0513 54.0024 23.651C54.0205 23.2508 54.1397 22.8623 54.3481 22.5243C55.0256 21.2465 55.9977 21.3378 57.1318 20.7293Z" fill="#AB8DA8"/>
<path d="M73.9112 11.6788C74.0924 11.2408 74.2888 10.7877 74.5002 10.3497C74.9643 9.30834 75.1564 8.16622 75.0587 7.03032C74.9609 5.89443 74.5765 4.80193 73.9414 3.85514C72.9723 2.69042 71.6953 1.82162 70.2561 1.34793C69.3345 0.894513 68.33 0.633867 67.3042 0.581928C66.2784 0.529989 65.2528 0.687849 64.2901 1.04585C64.1335 1.13326 63.9659 1.1993 63.7917 1.2422C63.5565 1.25671 63.3206 1.22594 63.0969 1.15158C62.3809 1.03816 61.6475 1.11841 60.973 1.38399C60.2984 1.64957 59.7072 2.09081 59.2606 2.66195C58.3408 3.80832 57.7136 5.16122 57.4331 6.604C57.3622 7.4654 57.4597 8.33236 57.72 9.15652C57.853 9.93151 58.0656 10.6907 58.3544 11.4221C58.785 11.9821 59.3238 12.4498 59.9387 12.7975C60.5536 13.1451 61.2321 13.3657 61.934 13.446C63.2106 13.6278 64.4762 13.8799 65.725 14.2011C66.5201 14.5247 67.2423 15.0041 67.8493 15.6111C68.4563 16.218 68.9357 16.9403 69.2592 17.7354C70.0295 19.0494 70.5279 21.3905 71.9326 22.1759C72.6869 22.5422 73.5551 22.5965 74.3492 22.3269C75.4064 22.0248 76.509 21.179 76.4184 20.0765C76.3278 18.9739 74.9986 18.3093 73.9112 17.962L71.9024 17.2219C71.8336 17.1959 71.7716 17.1546 71.7211 17.1011C71.6154 16.9802 71.7211 16.7839 71.7211 16.6479C72.6123 14.9412 73.2013 13.31 73.9112 11.6788Z" fill="#3B2645"/>
<path d="M59.1095 10.0926C58.9685 9.88115 58.78 9.70558 58.5591 9.57989C58.3382 9.4542 58.091 9.38186 57.8372 9.36866C57.5834 9.35545 57.33 9.40174 57.0972 9.50383C56.8645 9.60592 56.6588 9.76099 56.4966 9.95667C55.1071 11.467 57.1763 14.5784 58.8679 14.7898C59.0422 13.2303 59.1229 11.6618 59.1095 10.0926Z" fill="#E0855C"/>
<path d="M82.5349 29.4862C80.2975 34.1161 78.468 38.9323 77.0674 43.88C76.9466 44.3533 76.8408 44.8064 76.7502 45.2394C76.0856 48.2601 73.8503 63.0315 73.4878 65.3574C73.4878 65.5538 73.4878 65.6595 73.4878 65.6595C61.4955 68.3178 49.4126 64.4512 49.4126 64.4512V63.7866C49.2917 60.8716 48.7329 48.7887 48.5517 38.3672C48.461 33.0507 48.461 28.1571 48.6725 25.1213C48.6725 24.0036 51.3156 24.2604 53.113 24.0942C55.2387 23.9327 57.3724 23.9025 59.5018 24.0036C59.6024 23.996 59.7033 23.996 59.8039 24.0036H60.1966L60.4382 22.2818L60.6044 21.1339L61.0575 18.0376L61.6465 18.1585C62.0191 18.2471 62.3977 18.3077 62.7793 18.3397C63.2471 18.3689 63.7162 18.3689 64.184 18.3397H64.8485L65.7396 18.234C66.2229 18.1585 66.6912 18.0376 67.1292 17.9319L67.537 17.8111C67.537 17.8111 67.537 17.8111 67.6427 17.8111L67.9599 17.7205C68.5314 17.5217 69.0869 17.2794 69.6213 16.9955L70.3765 16.5575L70.5124 16.482L70.7843 16.3007L70.9655 16.1648C70.9655 16.3762 70.9655 16.4669 70.8749 16.5726C70.7087 17.5543 70.4973 18.8079 70.3765 20.0615C70.2707 20.9376 70.1952 21.7834 70.1348 22.5385C70.0291 23.8224 69.9838 24.7588 69.9838 24.7588C70.2669 24.7683 70.5492 24.7935 70.8296 24.8343H70.9353C72.1565 24.9484 73.368 25.1503 74.5602 25.4384C77.32 26.0746 79.9507 27.178 82.3386 28.7008C82.4554 28.7902 82.5384 28.9165 82.5741 29.0592C82.6097 29.2019 82.5959 29.3524 82.5349 29.4862Z" fill="#FBB99B"/>
<path d="M70.9353 16.1191C70.6755 17.188 70.1821 18.186 69.4905 19.0414C68.799 19.8969 67.9265 20.5884 66.9358 21.0664C65.9451 21.5445 64.8608 21.797 63.7608 21.806C62.6609 21.815 61.5726 21.5802 60.5742 21.1185L61.0273 18.0222C62.7184 18.4377 64.4793 18.4828 66.1895 18.1543C67.8996 17.8258 69.5185 17.1316 70.9353 16.1191Z" fill="#E0855C"/>
<path d="M59.6228 5.5766C58.7166 6.43751 58.5504 8.4614 58.3541 10.6967C57.8103 17.4632 59.7285 19.6683 63.1721 20.2272C66.6158 20.786 70.3011 19.6079 71.3583 13.3701C71.8869 10.2436 72.4307 7.32863 71.3583 5.93909C69.7573 3.83968 62.4321 2.93346 59.6228 5.5766Z" fill="#FBB99B"/>
<path d="M70.9202 12.4336C70.9202 12.4336 72.1284 9.68478 73.7294 11.2556C75.3304 12.8263 72.793 16.9496 70.2556 16.5116C70.2556 16.4512 70.0592 13.4305 70.9202 12.4336Z" fill="#FBB99B"/>
<path d="M72.8837 12.4942C72.4865 12.6045 72.1231 12.8122 71.8264 13.0984C71.5021 13.3461 71.2343 13.6602 71.041 14.0197C71.041 14.1254 71.1467 14.201 71.2223 14.1405C71.2978 14.0801 71.6301 13.7176 71.8415 13.5062C71.9651 13.6812 72.1315 13.8216 72.3248 13.914C72.4759 13.914 72.5967 13.7932 72.5363 13.6572C72.4323 13.4978 72.299 13.3594 72.1436 13.2494C72.4401 13.0862 72.7229 12.8993 72.9894 12.6906C73.0044 12.6721 73.0136 12.6495 73.0158 12.6258C73.0181 12.6021 73.0132 12.5782 73.0019 12.5572C72.9906 12.5362 72.9734 12.519 72.9523 12.5078C72.9313 12.4966 72.9074 12.4919 72.8837 12.4942Z" fill="#E0855C"/>
<path d="M61.3445 10.6818C61.3445 10.6818 60.7404 10.8631 60.8914 9.83602C61.0425 8.80897 61.4201 9.05062 61.4201 9.05062C61.4201 9.05062 61.8279 9.05062 61.7221 9.88133C61.6164 10.712 61.3445 10.6818 61.3445 10.6818Z" fill="#3B2645"/>
<path d="M67.2801 10.9689C67.2801 10.9689 66.6911 11.1652 66.827 10.123C66.9629 9.08089 67.3556 9.35276 67.3556 9.35276C67.3556 9.35276 67.7634 9.35276 67.6728 10.1835C67.5822 11.0142 67.2801 10.9689 67.2801 10.9689Z" fill="#3B2645"/>
<path d="M63.8671 13.5665C63.5801 13.5665 62.8854 13.6571 62.7645 13.3248C62.8531 12.6107 63.0307 11.9105 63.2932 11.2405C63.5801 10.2739 63.8671 9.62443 64.1088 8.47656C64.1088 8.47656 64.0332 8.38593 64.0181 8.47656C63.3471 10.0817 62.8067 11.7385 62.402 13.4306C62.3951 13.4525 62.3933 13.4758 62.3967 13.4986C62.4001 13.5214 62.4088 13.5431 62.4219 13.5621C62.435 13.581 62.4523 13.5967 62.4724 13.6079C62.4925 13.6192 62.515 13.6257 62.538 13.6269C62.9609 13.6269 63.3838 13.7477 63.8218 13.7779C63.9577 13.8384 64.0181 13.5967 63.8671 13.5665Z" fill="#E0855C"/>
<path d="M62.1446 7.55545C61.7368 7.32889 60.9514 7.22317 60.6342 7.64607C60.6244 7.66561 60.6194 7.68725 60.6196 7.70915C60.6199 7.73104 60.6255 7.75255 60.6359 7.77183C60.6463 7.79111 60.6611 7.80759 60.6793 7.81988C60.6974 7.83217 60.7182 7.8399 60.74 7.84241C60.9514 7.84241 61.1327 7.75179 61.3441 7.75179C61.5677 7.7517 61.7888 7.79798 61.9936 7.88773C62.1748 7.94814 62.3259 7.66117 62.1446 7.55545Z" fill="#3B2645"/>
<path d="M68.2928 8.37103C68.0813 7.76688 67.0392 7.66116 66.5861 8.00854C66.4803 8.08406 66.5861 8.2502 66.5861 8.29551C66.8524 8.31851 67.1202 8.31851 67.3865 8.29551C67.6067 8.34398 67.8198 8.42011 68.0209 8.52207C68.0467 8.54394 68.0785 8.55743 68.1121 8.56075C68.1457 8.56407 68.1796 8.55706 68.2091 8.54065C68.2386 8.52424 68.2625 8.49921 68.2774 8.46891C68.2924 8.4386 68.2977 8.40446 68.2928 8.37103Z" fill="#3B2645"/>
<path d="M62.2959 15.6059C63.5566 15.8361 64.8575 15.6781 66.0265 15.1528C65.8373 15.5472 65.5675 15.8975 65.2345 16.1811C64.9015 16.4647 64.5127 16.6752 64.0932 16.7991C62.7641 17.0861 62.2959 15.6059 62.2959 15.6059Z" fill="white"/>
<path d="M47.8721 115.501C44.2019 121.83 41.9666 128.808 39.1875 135.529C36.4569 141.912 32.9898 147.954 28.8566 153.532C26.4702 156.916 22.1808 161.447 22.4375 165.978C22.6858 167.571 22.7617 169.186 22.6641 170.796C22.1808 173.817 19.6434 172.699 17.4533 172.699H10.5509C7.53022 172.699 3.54285 173.394 0.58253 172.699C-0.927836 172.336 0.914812 170.615 1.44344 170.358C3.66368 169.316 5.97454 168.576 8.2703 167.579C10.3905 166.718 12.29 165.391 13.8284 163.697C13.9525 163.558 14.0685 163.412 14.1758 163.259C16.4565 160.238 21.4105 145.905 24.0234 138.489C24.5067 137.084 24.9145 135.921 25.2166 135.136C32.27 116.136 37.9037 96.5915 44.6097 77.3646C45.8029 73.9662 49.2768 62.563 51.8142 59.9954C55.3937 56.3705 58.6712 64.5265 62.3867 68.0456C63.4187 69.1079 64.1351 70.4361 64.4559 71.8819C68.4584 87.5142 55.1521 102.935 47.8721 115.501Z" fill="#FBB99B"/>
<path d="M97.0796 171.898C96.8061 172.09 96.4768 172.185 96.1431 172.17C90.6605 172.366 85.2685 172.17 79.8161 172.17C79.2509 172.2 78.6863 172.103 78.1636 171.886C77.6409 171.669 77.1734 171.338 76.7953 170.916C76.4852 170.33 76.3243 169.677 76.3271 169.013C76.3271 168.001 76.161 167.02 76.0251 166.083C75.5679 163.043 74.8037 160.058 73.7444 157.172C71.2808 150.412 69.5935 143.394 68.7149 136.253C67.9144 128.702 67.6878 121.15 65.8905 113.749C64.3801 107.874 62.175 101.273 60.5287 94.5523C58.2027 85.0369 57.0851 75.2649 61.2688 66.8974C61.5104 66.4141 61.7672 65.9308 62.0391 65.3871C62.4448 64.5452 63.0221 63.7974 63.7338 63.1917C64.4455 62.586 65.2759 62.1357 66.1719 61.8698C67.0678 61.6038 68.0094 61.5281 68.9363 61.6474C69.8633 61.7667 70.755 62.0785 71.5544 62.5627C74.0767 63.8163 75.5115 66.5198 76.4782 69.1781C77.3471 71.6318 78.0139 74.1524 78.4718 76.7148C79.6348 82.8469 79.8916 89.2811 80.4353 95.3225C81.2056 104.385 81.2962 113.266 81.6587 122.283C81.9759 130.061 82.6707 153.396 82.8217 157.293C82.7479 159.459 83.0077 161.624 83.592 163.712C83.9335 164.718 84.5511 165.608 85.3742 166.28C86.3266 166.9 87.3872 167.335 88.5007 167.563C90.9475 168.228 93.1526 169.285 95.6296 169.92C96.1332 170.014 96.6054 170.232 97.0041 170.554C97.1889 170.724 97.3002 170.96 97.3143 171.211C97.3284 171.462 97.2442 171.708 97.0796 171.898Z" fill="#FBB99B"/>
<path d="M52.5926 25.1794C49.9898 23.1227 43.7821 25.1794 41.2628 26.0462C37.5743 27.2361 37.1432 28.908 33.2877 29.0402C32.8868 29.0837 32.7434 29.19 32.3662 29.0402C31.9301 28.7809 30.7298 27.2403 30.4726 26.7871C27.1321 21.8803 23.5025 17.3945 22.6395 11.2243C22.4903 10.1973 21.4313 8.81401 21.7179 7.81997C21.8432 7.37925 19.1599 7.02139 19.2852 6.56597C19.4941 5.87727 19.602 5.15892 19.6053 4.43578C19.6389 3.82559 19.4975 3.21888 19.1995 2.69476C18.9016 2.17065 21.783 2.72575 21.2571 2.46989C18.9883 1.6472 14.7945 1.71978 15.0311 4.20255C15.0311 4.79019 14.9613 5.99302 15.0309 6.56597C15.1422 7.52088 15.3632 9.03405 15.5303 9.95958C15.9896 12.5011 18.327 14.6217 18.9533 17.0604C19.8998 20.7919 20.5575 24.4095 21.7684 28.0675C22.8402 31.2701 27.2884 37.2847 30.0304 39.2533C32.0324 40.4998 28.1792 39.8129 30.5036 39.7969C36.0093 40.15 41.5352 39.8246 46.9695 38.8273C48.4415 38.6424 49.8623 38.1425 51.1451 37.3582C52.9267 36.1241 52.7875 34.7432 53.1772 32.8627C53.6504 30.5122 54.5691 28.6318 53.5112 26.2224C53.2907 25.8005 52.9752 25.4423 52.5926 25.1794ZM17.6984 10.0477C17.6984 10.0477 17.6984 10.0477 17.6984 9.95958C17.7049 9.98856 17.7049 10.0187 17.6984 10.0477Z" fill="#FBB99B"/>
<path d="M21.3568 12C19.489 11.1464 17.4831 10.728 15.4637 10.7708C15.2842 9.72425 15.1197 8.64452 15 7.56478L22 7C21.8654 7.51495 21.7158 8.0299 21.5812 8.52824C21.2731 9.65221 21.1965 10.8387 21.3568 12Z" fill="#E0855C"/>
<path d="M25.0004 3.98819L12.6819 5.05282C12.6141 4.28145 12.2504 3.56931 11.6707 3.07306C11.0911 2.57681 10.343 2.3371 9.59106 2.40667C8.83912 2.47624 8.14492 2.84938 7.66117 3.44401C7.17742 4.03864 6.94375 4.80605 7.01156 5.57742L7.34246 9.3422C7.41027 10.1136 7.77402 10.8257 8.35367 11.322C8.93332 11.8182 9.6814 12.0579 10.4333 11.9883C11.1853 11.9188 11.8795 11.5456 12.3632 10.951C12.847 10.3564 13.0807 9.58897 13.0128 8.8176L25.3162 7.73754C25.3291 8.13357 25.4205 8.52276 25.5849 8.88133C25.7493 9.23991 25.9832 9.56036 26.2724 9.82312C26.5615 10.0859 26.8998 10.2854 27.2666 10.4096C27.6334 10.5337 28.0211 10.5799 28.4059 10.5453C28.7907 10.5106 29.1645 10.3959 29.5047 10.2081C29.8448 10.0203 30.1441 9.76332 30.3842 9.45291C30.6243 9.14251 30.8002 8.78516 30.9012 8.40269C31.0022 8.02022 31.0261 7.62065 30.9715 7.22837L30.6557 3.50987C30.554 2.76882 30.1785 2.09623 29.6069 1.63128C29.0353 1.16634 28.3113 0.94462 27.5847 1.01202C26.8582 1.07941 26.1847 1.43076 25.7036 1.99336C25.2226 2.55595 24.9708 3.28673 25.0004 4.03447V3.98819Z" fill="#3B2645"/>
<path d="M17.4627 7.17366C17.4699 7.4923 17.5529 7.80446 17.7047 8.08356C17.8564 8.36266 18.0725 8.60043 18.3344 8.77661C18.628 8.90479 18.9457 8.96616 19.2652 8.95638C19.9662 9.05613 20.6805 8.98422 21.3484 8.74665C21.7367 8.54836 22.0771 8.26565 22.3452 7.91865C22.6134 7.57166 22.8027 7.16893 22.8997 6.73922C23.0755 5.87116 23.0194 4.97124 22.7372 4.13255C22.6079 3.5532 22.3031 3.02937 21.8655 2.63447C21.5904 2.4349 21.2791 2.29235 20.9495 2.21501C19.6859 1.87624 18.3502 1.93899 17.1229 2.39478C16.0887 2.78428 15.6455 3.41347 16.3251 4.23742C16.6997 4.6241 16.9936 5.08345 17.1891 5.58797C17.3845 6.09249 17.4776 6.63181 17.4627 7.17366Z" fill="#FBB99B"/>
<path d="M67.5203 25.4867C66.3931 27.8611 67.3758 29.7142 67.8671 32.0306C68.2573 33.8838 68.1273 35.2446 69.977 36.4608C71.3088 37.2337 72.784 37.7264 74.3124 37.9085C79.9546 38.8914 85.6919 39.212 91.4082 38.8641C93.8159 38.8952 96.1873 38.275 98.2725 37.0688C101.163 35.1288 103.215 30.8724 104.313 27.7163C105.57 24.1114 106.611 20.4775 107.594 16.7712C108.244 14.3679 108.88 11.9067 109.371 9.40211C109.545 8.49002 109.689 7.54897 109.819 6.60793C109.819 6.0433 109.949 5.4642 109.992 4.88509C110.18 2.43837 106.799 0.368074 104.458 1.17882C103.912 1.43097 103.454 1.8421 103.145 2.3586C102.835 2.87511 102.689 3.47301 102.724 4.07434C102.729 4.78571 102.836 5.49262 103.041 6.1736C103.172 6.6224 103.316 7.07121 103.461 7.50554C103.745 8.48749 103.819 9.51874 103.677 10.5314C102.781 16.612 97.6945 22.1135 94.2262 26.9055C93.9592 27.3522 93.5807 27.7214 93.1279 27.9769C92.7363 28.1245 92.3158 28.179 91.8995 28.1361C87.8965 28.0058 84.067 26.5436 80.2374 25.3709C77.6073 24.5602 71.1765 22.4754 68.4596 24.5167C68.072 24.7582 67.7495 25.0913 67.5203 25.4867V25.4867ZM104.66 9.41658V9.50345V9.41658V9.41658Z" fill="#FBB99B"/>
<path d="M103.657 11C105.52 10.1441 107.522 9.72563 109.537 9.77076C109.716 8.72425 109.866 7.64452 110 6.56478L103 6C103.134 6.51495 103.284 7.0299 103.433 7.52824C103.727 8.6549 103.803 9.83814 103.657 11Z" fill="#E0855C"/>
<path d="M100.766 3.11877L112.576 4.23884C112.673 3.50192 113.033 2.83308 113.581 2.37073C114.129 1.90837 114.824 1.6879 115.52 1.75491C116.217 1.82193 116.862 2.17132 117.324 2.73078C117.785 3.29024 118.026 4.01694 117.998 4.76051L117.681 8.50429C117.583 9.2412 117.223 9.91004 116.675 10.3724C116.127 10.8348 115.433 11.0552 114.736 10.9882C114.04 10.9212 113.394 10.5718 112.933 10.0123C112.472 9.45289 112.23 8.72618 112.259 7.98261L100.449 6.84721C100.437 7.24103 100.349 7.62804 100.191 7.98462C100.034 8.3412 99.8096 8.65986 99.5324 8.92115C99.2553 9.18244 98.9309 9.38087 98.5792 9.50434C98.2276 9.6278 97.8559 9.67371 97.487 9.63926C97.1181 9.60481 96.7597 9.49072 96.4336 9.30396C96.1075 9.1172 95.8206 8.86168 95.5905 8.55301C95.3603 8.24434 95.1916 7.88899 95.0948 7.50865C94.998 7.12831 94.975 6.73097 95.0273 6.34088L95.3301 2.64313C95.3951 1.87607 95.7439 1.1679 96.2996 0.674419C96.8553 0.180939 97.5725 -0.0574322 98.2934 0.0117461C99.0142 0.0809243 99.6798 0.451984 100.144 1.0433C100.607 1.63461 100.831 2.39774 100.766 3.1648V3.11877Z" fill="#3B2645"/>
<path d="M107.537 6.17366C107.53 6.4923 107.447 6.80446 107.295 7.08356C107.144 7.36266 106.928 7.60043 106.666 7.77661C106.372 7.90342 106.054 7.96472 105.735 7.95638C105.034 8.05613 104.32 7.98422 103.652 7.74665C103.259 7.55458 102.915 7.27374 102.646 6.92573C102.377 6.57773 102.19 6.17182 102.1 5.73922C101.924 4.87116 101.981 3.97124 102.263 3.13255C102.386 2.55089 102.692 2.02535 103.134 1.63447C103.41 1.4349 103.721 1.29235 104.05 1.21501C105.314 0.876242 106.65 0.938992 107.877 1.39478C108.911 1.78428 109.355 2.41347 108.675 3.23742C108.297 3.62203 108.002 4.08102 107.806 4.58604C107.61 5.09106 107.519 5.63139 107.537 6.17366V6.17366Z" fill="#FBB99B"/>
<path d="M83.2292 158.169C83.1274 158.326 82.9997 158.463 82.8516 158.577C82.6182 158.732 82.3704 158.863 82.1116 158.97C81.5669 159.192 80.9913 159.33 80.4049 159.378C79.9327 159.423 79.4573 159.423 78.9851 159.378C76.7347 159.378 74.454 159.378 74.454 159.378C71.8713 154.559 65.86 137.719 66.3584 126.467C66.8569 115.214 59.9696 95.489 59.9696 95.489C59.9696 95.489 59.9696 95.625 59.9696 95.6854C58.4592 100.775 43.7029 129.805 41.0749 135.801L40.9088 136.193C38.0693 142.975 25.0801 158.653 25.0801 158.653C22.2104 158.819 17.7397 155.768 17.7397 155.768C17.7397 155.768 16.5617 150.965 18.5705 140.573C20.5792 130.182 32.6773 113.598 35.698 99.1139C38.7187 84.6295 49.2913 63.7411 49.2913 63.7411C54.982 64.7901 60.8017 64.943 66.5397 64.1942H67.0079C67.8235 64.0885 68.5183 63.9526 69.2734 63.8317L70.0286 63.6807C71.3208 63.4299 72.5968 63.1021 73.8499 62.699C79.9971 71.3987 81.4772 86.5779 81.4772 91.7886C81.4772 96.9994 83.6521 128.868 83.6521 134.925C83.6974 140.634 85.2984 155.088 83.2292 158.169Z" fill="#3B2645"/>
<path d="M83.2298 158.169C83.1324 158.329 83.004 158.468 82.8522 158.577C82.6188 158.732 82.3709 158.863 82.1121 158.97C82.7616 143.458 79.7862 128.022 78.5628 112.541C77.8529 103.615 78.3966 94.583 77.5357 85.6869C76.7352 77.5611 73.5635 70.5833 69.3193 63.8168L70.0745 63.6658C74.5927 69.4507 77.4442 76.3603 78.3211 83.6479C79.5445 92.544 78.6383 101.667 79.3029 110.623C79.9674 119.912 81.2059 129.155 82.1575 138.414C83.0455 144.959 83.4041 151.566 83.2298 158.169Z" fill="#E8CEE5"/>
<path d="M59.985 95.5493C59.985 95.5493 59.985 95.655 59.985 95.7306C58.4747 100.82 43.7184 129.85 41.0903 135.846C43.0991 127.539 43.2502 120.742 47.1318 111.318C51.7837 99.9596 59.3809 95.8665 59.985 95.5493Z" fill="#291B30"/>
<path d="M108 14.2545C108 14.2545 106.819 28.4217 102.944 35.1534C99.0695 41.8851 77.9675 39.3301 77.9675 39.3301C77.9675 39.3301 73.387 57.4903 75.5476 62.4167C77.7082 67.3431 68.2303 68.1233 65.2199 67.9857C62.2094 67.848 46.1489 68.2151 46.2785 65.0329C46.4082 61.8506 48.6264 60.7185 48.4247 56.2511C48.2231 51.7837 48.0646 39.2995 48.0646 39.2995C48.0646 39.2995 40.3556 42.7313 31.8284 40.7118C23.3012 38.6923 18.0432 21.341 18 15.8944L23.2452 14.8815C23.2452 14.8815 30.2295 26.3716 31.8284 27.9933C33.4272 29.615 44.2331 22.9292 48.2375 23.0057C52.2418 23.0822 60.1497 23.2352 60.1497 23.2352C60.1497 23.2352 60.7114 28.5135 63.9235 27.9933C67.1356 27.4731 69.4835 23.9696 69.4835 23.9696C71.9616 23.3019 74.5465 23.2131 77.06 23.7095L77.4922 23.8013C79.2783 24.2297 81.8134 25.0558 84.4061 25.7596C87.7767 26.6929 90.9888 27.4272 92.0547 26.7694C93.9704 25.576 102.815 13 102.815 13L108 14.2545Z" fill="#AB8DA8"/>
<path d="M61.79 31.0084C59.9425 30.788 60.2632 34.9442 60.2632 35.9203C60.358 37.1043 60.26 38.2962 59.9731 39.4468C59.5416 40.4493 59.0574 41.4269 58.5226 42.375C58.2345 42.9025 58.0607 43.4881 58.0133 44.0914C57.9658 44.6948 58.0458 45.3016 58.2477 45.87C58.2741 45.9192 58.3157 45.9578 58.3658 45.9799C58.416 46.0019 58.4718 46.006 58.5245 45.9915C58.5771 45.977 58.6236 45.9448 58.6564 45.9C58.6893 45.8551 58.7067 45.8002 58.7058 45.744C58.2935 42.9575 60.3395 41.273 60.8281 38.7541C61.0877 37.3844 60.2174 31.9845 61.8511 31.465C61.8999 31.4462 61.941 31.4109 61.9676 31.3648C61.9943 31.3187 62.005 31.2647 61.9979 31.2115C61.9907 31.1584 61.9663 31.1093 61.9285 31.0724C61.8907 31.0355 61.8419 31.0129 61.79 31.0084Z" fill="#3B2645"/>
<path d="M63.5717 31.0985C63.1181 31.8012 62.8192 32.5927 62.6948 33.4202C62.5704 34.2478 62.6233 35.0924 62.8502 35.8978C63.1166 37.5406 62.9849 39.2236 62.4664 40.8048C62.0719 41.779 61.9242 42.8359 62.0365 43.8812C62.0473 43.9157 62.0687 43.9457 62.0977 43.9671C62.1267 43.9885 62.1617 44 62.1977 44C62.2337 44 62.2688 43.9885 62.2978 43.9671C62.3268 43.9457 62.3482 43.9157 62.3589 43.8812C62.5892 42.0969 63.5103 40.4971 63.6945 38.7128C63.9708 36.1593 62.6199 33.8366 63.9554 31.3754C63.9921 31.3244 64.007 31.2609 63.9969 31.1989C63.9869 31.1368 63.9526 31.0814 63.9017 31.0447C63.8508 31.0079 63.7875 30.993 63.7256 31.0031C63.6637 31.0132 63.6083 31.0475 63.5717 31.0985Z" fill="#3B2645"/>
<path d="M36.0308 41.5692C36.0308 41.5692 46.7242 35.9657 47.9929 33.3226C49.2616 30.6795 47.6153 40.4666 47.6153 40.4666L36.0308 41.5692Z" fill="#826B80"/>
<path d="M78.3208 24.5474C80.1937 24.9703 82.8519 25.7859 85.5706 26.4806C84.2048 26.1689 82.7824 26.2076 81.4357 26.5931C80.0889 26.9787 78.8616 27.6985 77.8677 28.6858C74.7412 31.9179 67.2951 31.0117 66.4946 30.9211C71.5997 31.4497 77.3542 25.6046 78.3208 24.5474Z" fill="#826B80"/>
</svg>
