<svg width="19" height="19" viewBox="0 0 19 19" fill="none" xmlns="http://www.w3.org/2000/svg">
<path fill-rule="evenodd" clip-rule="evenodd" d="M2.37516 11.4769C3.46823 11.4769 4.35433 10.5908 4.35433 9.49772C4.35433 8.40466 3.46823 7.51855 2.37516 7.51855C1.2821 7.51855 0.395996 8.40466 0.395996 9.49772C0.395996 10.5908 1.2821 11.4769 2.37516 11.4769Z" fill="#5B6172"/>
<path fill-rule="evenodd" clip-rule="evenodd" d="M2.37516 11.4769C3.46823 11.4769 4.35433 10.5908 4.35433 9.49772C4.35433 8.40466 3.46823 7.51855 2.37516 7.51855C1.2821 7.51855 0.395996 8.40466 0.395996 9.49772C0.395996 10.5908 1.2821 11.4769 2.37516 11.4769Z" fill="#1B2C56"/>
<path fill-rule="evenodd" clip-rule="evenodd" d="M2.37516 11.4769C3.46823 11.4769 4.35433 10.5908 4.35433 9.49772C4.35433 8.40466 3.46823 7.51855 2.37516 7.51855C1.2821 7.51855 0.395996 8.40466 0.395996 9.49772C0.395996 10.5908 1.2821 11.4769 2.37516 11.4769Z" stroke="#5B6172"/>
<path fill-rule="evenodd" clip-rule="evenodd" d="M2.37516 11.4769C3.46823 11.4769 4.35433 10.5908 4.35433 9.49772C4.35433 8.40466 3.46823 7.51855 2.37516 7.51855C1.2821 7.51855 0.395996 8.40466 0.395996 9.49772C0.395996 10.5908 1.2821 11.4769 2.37516 11.4769Z" stroke="#1B2C56"/>
<path fill-rule="evenodd" clip-rule="evenodd" d="M17.9479 18.4766C18.2297 18.3358 18.444 18.0888 18.5437 17.7899C18.6433 17.491 18.6201 17.1648 18.4791 16.883C18.1735 16.2718 15.5832 10.7318 14.4954 8.42642C14.2332 7.87274 13.6751 7.52 13.0625 7.52075H8.3125V1.58325C8.3125 0.927414 7.78084 0.395752 7.125 0.395752C6.46916 0.395752 5.9375 0.927414 5.9375 1.58325V17.4166C5.9375 18.0724 6.46916 18.6041 7.125 18.6041C7.78084 18.6041 8.3125 18.0724 8.3125 17.4166V11.4791H10.9432L8.43758 16.8854C8.14421 17.4721 8.38204 18.1856 8.96879 18.479C9.55555 18.7724 10.269 18.5345 10.5624 17.9478L13.4583 11.8749L16.3542 17.9478C16.6508 18.531 17.3615 18.7668 17.9479 18.4766Z" fill="#5B6172"/>
<path fill-rule="evenodd" clip-rule="evenodd" d="M17.9479 18.4766C18.2297 18.3358 18.444 18.0888 18.5437 17.7899C18.6433 17.491 18.6201 17.1648 18.4791 16.883C18.1735 16.2718 15.5832 10.7318 14.4954 8.42642C14.2332 7.87274 13.6751 7.52 13.0625 7.52075H8.3125V1.58325C8.3125 0.927414 7.78084 0.395752 7.125 0.395752C6.46916 0.395752 5.9375 0.927414 5.9375 1.58325V17.4166C5.9375 18.0724 6.46916 18.6041 7.125 18.6041C7.78084 18.6041 8.3125 18.0724 8.3125 17.4166V11.4791H10.9432L8.43758 16.8854C8.14421 17.4721 8.38204 18.1856 8.96879 18.479C9.55555 18.7724 10.269 18.5345 10.5624 17.9478L13.4583 11.8749L16.3542 17.9478C16.6508 18.531 17.3615 18.7668 17.9479 18.4766Z" fill="#1B2C56"/>
<path fill-rule="evenodd" clip-rule="evenodd" d="M17.9479 18.4766C18.2297 18.3358 18.444 18.0888 18.5437 17.7899C18.6433 17.491 18.6201 17.1648 18.4791 16.883C18.1735 16.2718 15.5832 10.7318 14.4954 8.42642C14.2332 7.87274 13.6751 7.52 13.0625 7.52075H8.3125V1.58325C8.3125 0.927414 7.78084 0.395752 7.125 0.395752C6.46916 0.395752 5.9375 0.927414 5.9375 1.58325V17.4166C5.9375 18.0724 6.46916 18.6041 7.125 18.6041C7.78084 18.6041 8.3125 18.0724 8.3125 17.4166V11.4791H10.9432L8.43758 16.8854C8.14421 17.4721 8.38204 18.1856 8.96879 18.479C9.55555 18.7724 10.269 18.5345 10.5624 17.9478L13.4583 11.8749L16.3542 17.9478C16.6508 18.531 17.3615 18.7668 17.9479 18.4766Z" stroke="#5B6172"/>
<path fill-rule="evenodd" clip-rule="evenodd" d="M17.9479 18.4766C18.2297 18.3358 18.444 18.0888 18.5437 17.7899C18.6433 17.491 18.6201 17.1648 18.4791 16.883C18.1735 16.2718 15.5832 10.7318 14.4954 8.42642C14.2332 7.87274 13.6751 7.52 13.0625 7.52075H8.3125V1.58325C8.3125 0.927414 7.78084 0.395752 7.125 0.395752C6.46916 0.395752 5.9375 0.927414 5.9375 1.58325V17.4166C5.9375 18.0724 6.46916 18.6041 7.125 18.6041C7.78084 18.6041 8.3125 18.0724 8.3125 17.4166V11.4791H10.9432L8.43758 16.8854C8.14421 17.4721 8.38204 18.1856 8.96879 18.479C9.55555 18.7724 10.269 18.5345 10.5624 17.9478L13.4583 11.8749L16.3542 17.9478C16.6508 18.531 17.3615 18.7668 17.9479 18.4766Z" stroke="#1B2C56"/>
</svg>
