<svg width="25" height="24" viewBox="0 0 25 24" fill="none" xmlns="http://www.w3.org/2000/svg">
<path fill-rule="evenodd" clip-rule="evenodd" d="M11.888 2H16.9273C19.447 2 21.502 4 21.502 6.44V17.56C21.502 20.01 19.447 22 16.9067 22H11.8777C9.35807 22 7.29278 20.01 7.29278 17.57V12.77H13.6952L12.0429 14.37C11.7331 14.67 11.7331 15.16 12.0429 15.46C12.1978 15.61 12.4044 15.68 12.6109 15.68C12.8071 15.68 13.0136 15.61 13.1685 15.46L16.1838 12.55C16.3387 12.41 16.4213 12.21 16.4213 12C16.4213 11.8 16.3387 11.6 16.1838 11.46L13.1685 8.55C12.8587 8.25 12.3527 8.25 12.0429 8.55C11.7331 8.85 11.7331 9.34 12.0429 9.64L13.6952 11.23H7.29278V6.45C7.29278 4 9.35807 2 11.888 2ZM2.50195 11.9999C2.50195 11.5799 2.85718 11.2299 3.28346 11.2299H7.29247V12.7699H3.28346C2.85718 12.7699 2.50195 12.4299 2.50195 11.9999Z" fill="white"/>
</svg>
