<svg width="71" height="120" viewBox="0 0 71 120" fill="none" xmlns="http://www.w3.org/2000/svg">
<path d="M69.591 9.41084C69.591 9.41084 69.591 10.0362 69.4901 11.0992C69.1704 15.6484 68.077 28.452 65.5704 35.737C64.8638 37.7693 62.6601 42.5686 60.0694 48.009C56.2675 56.1694 51.6244 65.5493 49.858 69.6921C49.2861 71.0365 43.7346 68.4883 42.2542 68.2382C38.5196 67.566 38.0654 61.3753 39.2766 56.1694C39.6686 54.3471 40.385 52.5982 41.3962 50.9949L41.7159 50.5415L41.9346 50.2445C43.9869 47.4618 47.3346 43.8662 50.3459 40.5989C52.5741 38.3398 54.5523 35.8782 56.2506 33.2513C57.9329 29.9215 63.333 9.98926 63.333 9.98926C65.8732 7.42543 69.591 9.41084 69.591 9.41084Z" fill="#FBB99B"/>
<path d="M70.2974 7.25325C70.1123 8.00364 69.9609 8.72276 69.8431 9.30119C69.6245 10.3642 69.5235 11.0677 69.5235 11.0677C67.6394 12.8968 63.972 11.0677 63.972 11.0677C63.7223 10.7551 63.4974 10.4259 63.2991 10.0828C62.2885 8.46853 61.8859 6.58713 62.1552 4.73632C62.4244 3.31371 62.6935 0.0463867 62.6935 0.0463867H63.3664C64.073 0.0463867 64.2917 2.07869 64.3421 3.03231C64.3552 3.1623 64.3552 3.29315 64.3421 3.42314C64.3809 3.25488 64.4552 3.09545 64.5608 2.95414C64.7848 2.70211 65.0728 2.50584 65.3988 2.38303C65.7248 2.26021 66.0785 2.21472 66.4282 2.25066C67.2861 2.25066 68.1104 2.25066 68.9852 2.25066C69.3794 2.24283 69.7704 2.31764 70.1291 2.46952C70.2572 2.51859 70.3721 2.59332 70.4656 2.68838C71.5927 3.75143 70.6002 6.1433 70.2974 7.25325Z" fill="#FBB99B"/>
<path d="M70.2975 7.25394C70.1124 8.00433 69.961 8.72345 69.8432 9.30187C69.7112 9.11525 69.5651 8.93762 69.4059 8.77035C68.6636 8.10085 67.7898 7.57013 66.832 7.20704C65.7553 6.67551 62.7946 5.1122 63.703 3.53326C63.8571 3.31787 64.081 3.15363 64.3422 3.06426L64.5946 2.9861C65.9869 2.79114 67.3922 2.68666 68.8002 2.67344C69.2545 2.67344 69.7087 2.53274 70.1629 2.48584C70.2887 2.53872 70.4028 2.61294 70.4993 2.7047C71.5928 3.75212 70.6003 6.14399 70.2975 7.25394Z" fill="#E0855C"/>
<path d="M44.6089 36.7063C45.161 33.7668 45.9368 30.8674 46.9304 28.0299C47.0536 27.7243 47.0903 27.3945 47.037 27.072C46.9838 26.7494 46.8423 26.445 46.6263 26.1877C46.4102 25.9305 46.1268 25.7291 45.803 25.6027C45.4793 25.4764 45.1261 25.4294 44.7772 25.4661C44.058 25.5831 43.3573 25.7826 42.6911 26.0602C42.6911 26.0602 44.3734 21.5578 42.0014 20.0727C39.6294 18.5876 36.1135 21.4328 34.7509 23.5589C35.0146 23.1043 35.0884 22.5751 34.958 22.0731C34.8276 21.571 34.5022 21.1314 34.0443 20.8387C32.362 19.8382 24.8423 27.5453 26.3227 33.8767C27.8031 40.2081 28.4255 38.426 28.4255 38.426C28.4255 38.426 44.1379 37.5192 44.6089 36.7063Z" fill="#3B2645"/>
<path d="M28.0044 35.6901C27.8374 35.4769 27.6185 35.3035 27.3656 35.1839C27.1127 35.0643 26.833 35.002 26.5492 35.002C26.2655 35.002 25.9858 35.0643 25.7329 35.1839C25.48 35.3035 25.2611 35.4769 25.0941 35.6901C23.6305 37.2534 26.1203 40.38 28.0044 40.5676C28.1151 38.9434 28.1151 37.3143 28.0044 35.6901Z" fill="#E0855C"/>
<path d="M55.1395 54.6067C52.9065 59.5087 51.139 64.5827 49.8572 69.7708C49.7562 70.271 49.6553 70.74 49.5712 71.1934C49.016 74.32 47.3338 89.7342 47.0646 92.1574C47.0646 92.3606 47.0646 92.47 47.0646 92.47C33.8925 95.8468 20.1484 92.47 20.1484 92.47C20.1484 92.47 20.1484 92.2355 20.1484 91.7822C19.8456 88.7806 18.5502 76.3211 17.7764 65.5498C17.3726 60.047 17.1203 54.9975 17.1876 51.8552C17.1876 50.6984 20.0811 50.8235 22.0662 50.5577C24.4489 50.2734 26.8473 50.1168 29.2494 50.0887H29.9896L30.1578 48.2909L30.2924 47.0871L30.6121 43.8667C30.8307 43.8667 31.0494 43.9449 31.2681 43.9605C31.6902 44.0325 32.1177 44.0743 32.5467 44.0856C33.0673 44.1251 33.5905 44.1251 34.1112 44.0856L34.8514 44.0074C35.1791 43.977 35.5048 43.93 35.8271 43.8667C36.3654 43.7573 36.8869 43.6166 37.3748 43.4759L37.8121 43.3352H37.9299L38.2664 43.2101C38.894 42.9779 39.5015 42.7009 40.0832 42.3816C40.4028 42.2096 40.672 42.0377 40.8907 41.897L41.0421 41.8032L41.3281 41.5999C41.4079 41.5636 41.4771 41.51 41.5299 41.4436C41.5299 41.6781 41.5299 41.7719 41.5299 41.8813C41.3785 42.8975 41.2271 44.2107 41.1598 45.5238C41.1598 46.4149 41.0589 47.306 41.0253 48.0877C41.0253 49.4165 41.0253 50.3857 41.0253 50.3857C41.3391 50.3702 41.6535 50.3702 41.9673 50.3857C41.9827 50.3775 42.0001 50.3732 42.0178 50.3732C42.0355 50.3732 42.0529 50.3775 42.0683 50.3857C43.44 50.4453 44.8058 50.5916 46.1562 50.8235C49.2571 51.3414 52.239 52.3514 54.9712 53.8094C55.0941 53.9038 55.178 54.0347 55.2086 54.1801C55.2393 54.3254 55.2149 54.4762 55.1395 54.6067V54.6067Z" fill="#FBB99B"/>
<path d="M41.4963 41.3027C41.2723 42.423 40.7827 43.4828 40.0631 44.4053C39.3435 45.3278 38.412 46.0899 37.336 46.6362C36.2601 47.1826 35.0667 47.4995 33.8426 47.5639C32.6185 47.6284 31.3943 47.4387 30.2588 47.0088L30.5784 43.7884C32.4835 44.1299 34.4455 44.0846 36.33 43.6556C38.2145 43.2265 39.9768 42.4239 41.4963 41.3027Z" fill="#E0855C"/>
<path d="M28.4259 31.0009C27.4502 31.9233 27.3829 34.0337 27.2988 36.3474C27.0465 43.3667 29.3175 45.571 33.1699 45.9462C37.0223 46.3214 41.0766 44.9613 41.9009 38.4423C42.3214 35.1906 42.7588 32.189 41.4971 30.7664C39.5121 28.6716 31.3026 28.1244 28.4259 31.0009Z" fill="#FBB99B"/>
<path d="M41.2782 37.5035C41.2782 37.5035 42.4726 34.5958 44.3231 36.1435C46.1736 37.6911 43.5661 42.0997 40.7735 41.7558C40.7735 41.7558 40.3697 38.5041 41.2782 37.5035Z" fill="#FBB99B"/>
<path d="M43.4648 37.4098C43.0294 37.5501 42.637 37.7861 42.3209 38.0976C41.9777 38.3711 41.6974 38.7061 41.4966 39.0825C41.4966 39.2076 41.6143 39.2701 41.7153 39.2076C41.8162 39.1451 42.1358 38.7386 42.3714 38.5197C42.5145 38.6921 42.6988 38.8312 42.9097 38.9262C42.9484 38.932 42.9881 38.928 43.0246 38.9147C43.0611 38.9013 43.0931 38.8791 43.1171 38.8503C43.1412 38.8216 43.1565 38.7873 43.1615 38.7511C43.1664 38.715 43.1608 38.6783 43.1452 38.6448C43.0281 38.4839 42.8727 38.3501 42.691 38.254C43.0053 38.0617 43.3034 37.8475 43.5826 37.613C43.5993 37.5938 43.6096 37.5705 43.612 37.5459C43.6145 37.5214 43.6091 37.4967 43.5965 37.475C43.584 37.4532 43.5647 37.4354 43.5413 37.4239C43.5179 37.4123 43.4913 37.4074 43.4648 37.4098Z" fill="#E0855C"/>
<path d="M30.5286 36.1751C30.5286 36.1751 29.8725 36.4096 29.9734 35.331C30.0744 34.2523 30.5286 34.5024 30.5286 34.5024C30.5286 34.5024 30.9828 34.5024 30.9155 35.3466C30.8482 36.1908 30.5286 36.1751 30.5286 36.1751Z" fill="#3B2645"/>
<path d="M37.1565 36.1751C37.1565 36.1751 36.5004 36.4096 36.6014 35.331C36.7023 34.2523 37.1565 34.5024 37.1565 34.5024C37.1565 34.5024 37.6107 34.5024 37.5434 35.3466C37.4762 36.1908 37.1565 36.1751 37.1565 36.1751Z" fill="#3B2645"/>
<path d="M33.4724 39.0521C33.1528 39.0521 32.3957 39.1772 32.2275 38.8489C32.2927 38.1035 32.4566 37.3684 32.7154 36.6603C33.0263 35.705 33.279 34.7342 33.4724 33.7525C33.4724 33.7525 33.4724 33.6743 33.3546 33.7525C32.6896 35.4531 32.1665 37.1987 31.7901 38.974C31.7853 38.9957 31.7855 39.0181 31.7907 39.0398C31.7959 39.0614 31.8059 39.0818 31.8203 39.0995C31.8346 39.1173 31.8528 39.132 31.8737 39.1427C31.8946 39.1534 31.9177 39.1598 31.9415 39.1616C32.4294 39.1616 32.9004 39.2554 33.3883 39.2554C33.6238 39.3179 33.6743 39.0678 33.4724 39.0521Z" fill="#E0855C"/>
<path d="M31.2516 32.9231C30.7805 32.6887 29.9058 32.6418 29.5693 33.0951C29.5574 33.1142 29.5512 33.1359 29.5513 33.1579C29.5513 33.18 29.5576 33.2016 29.5696 33.2207C29.5816 33.2397 29.5987 33.2555 29.6193 33.2664C29.64 33.2773 29.6633 33.2829 29.6871 33.2827C29.9226 33.2827 30.1245 33.1733 30.36 33.1576C30.6067 33.1467 30.8531 33.184 31.0833 33.2671C31.302 33.3296 31.4534 33.0169 31.2516 32.9231Z" fill="#3B2645"/>
<path d="M38.1323 33.4551C37.8631 32.8298 36.7024 32.7673 36.2145 33.1581C36.1861 33.1709 36.1621 33.1909 36.1453 33.2158C36.1285 33.2407 36.1196 33.2695 36.1196 33.2988C36.1196 33.3282 36.1285 33.357 36.1453 33.3818C36.1621 33.4067 36.1861 33.4267 36.2145 33.4395C36.5005 33.5333 36.8033 33.4395 37.1061 33.4395C37.3507 33.4761 37.5886 33.5445 37.8127 33.6427C38.0314 33.7053 38.1828 33.5646 38.1323 33.4551Z" fill="#3B2645"/>
<path d="M31.79 41.2245C33.2346 41.4007 34.7026 41.1606 35.9957 40.5366C35.8021 40.9522 35.5184 41.3263 35.1625 41.6357C34.8065 41.945 34.3857 42.1828 33.9265 42.3344C32.4629 42.7409 31.79 41.2245 31.79 41.2245Z" fill="white"/>
<path d="M29.0809 68.2385C27.6342 68.4886 20.9892 69.1765 19.8117 68.2385C18.9665 67.4548 18.2673 66.5462 17.7425 65.5496C15.0479 60.2756 12.6941 54.8569 10.6938 49.3224C8.43955 43.4131 6.52177 37.9103 5.7984 35.8154C3.19089 28.4522 2.18153 15.6331 1.8619 11.0839C1.77779 10.0208 1.74414 9.41113 1.74414 9.41113C1.74414 9.41113 5.4283 7.47263 8.05263 10.0208C8.05263 10.0208 13.5368 29.9687 15.1518 33.2985C16.5079 35.4684 18.1035 37.5013 19.9126 39.3642C23.0248 42.8347 26.8603 46.8993 29.2155 50.0103L29.6529 50.5887L29.9725 51.0421C31.4555 53.5414 32.3393 56.3092 32.5632 59.1557C33.0006 63.4704 32.1426 67.6913 29.0809 68.2385Z" fill="#FBB99B"/>
<path d="M8.05407 10.0208C7.85584 10.3639 7.63094 10.6931 7.38116 11.0057C7.38116 11.0057 3.73065 12.8817 1.86333 11.0839C1.86333 11.0839 1.77922 10.5992 1.62782 9.84886C1.47641 9.09847 1.30819 8.28555 1.05585 7.25376C0.853976 6.50337 -0.45819 3.51745 0.214716 2.98592C0.375656 2.88469 0.560153 2.82039 0.75304 2.79832L3.00727 2.42313C4.30262 2.20427 6.47274 1.87597 6.99424 3.39238C6.99424 2.51693 6.99424 0.45336 7.96995 0H8.6765C8.6765 0 8.92884 3.20479 9.19801 4.68993C9.46346 6.53561 9.06104 8.41093 8.05407 10.0208V10.0208Z" fill="#FBB99B"/>
<path d="M17.5752 95.2527C17.5752 95.2527 10.6107 112.715 10.3247 145.748C10.3247 148.374 4.82369 166.555 6.96016 191.959L15.1528 193.397C15.1528 193.397 23.0931 166.571 23.4463 148.265C23.4463 148.265 33.5399 115.779 34.2297 100.834C34.9194 85.8885 24.2202 81.0422 17.5752 95.2527Z" fill="#FBB99B"/>
<path d="M49.3192 95.2527C49.3192 95.2527 56.2837 112.715 56.5529 145.748C56.5529 148.374 62.0707 166.555 59.9174 191.959L51.7248 193.397C51.7248 193.397 43.8013 166.571 43.4312 148.265C43.4312 148.265 33.3377 115.779 32.6479 100.834C31.9582 85.8885 42.6742 81.0422 49.3192 95.2527Z" fill="#FBB99B"/>
<path d="M60.0683 48.0091C56.2664 56.1696 51.6402 65.5495 49.857 69.6922C49.7561 70.1925 49.6551 70.6615 49.571 71.1148C49.0159 74.2415 47.3336 89.6557 47.0644 92.0788C42.5055 93.3764 33.2362 94.9084 20.1482 91.7037C19.8454 88.7021 18.5501 76.2425 17.7762 65.4713C15.0816 60.1973 12.7279 54.7786 10.7275 49.2441C13.8734 47.3994 18.2809 44.1008 19.9463 39.364C23.0585 42.8346 26.8941 46.8992 29.2493 50.0102H29.5857C29.5857 50.1821 29.5857 50.3854 29.6867 50.5886C30.1066 53.5811 31.0918 56.4813 32.597 59.1555C32.8148 59.5285 33.1226 59.8495 33.4961 60.0936C33.8697 60.3377 34.2989 60.4982 34.7503 60.5625C36.4325 60.5625 38.0307 58.5927 39.3092 56.2165C40.2679 54.3979 41.0832 52.517 41.7485 50.5886L41.8662 50.2916C41.8816 50.2833 41.899 50.279 41.9167 50.279C41.9344 50.279 41.9518 50.2833 41.9672 50.2916C44.0195 47.5089 47.3672 43.9132 50.3785 40.6459C51.9766 42.772 55.8122 47.0242 60.0683 48.0091Z" fill="#E8CEE5"/>
<path d="M56.9233 130.849C52.5047 132.988 47.5189 133.905 42.5568 133.491C40.8085 133.353 39.1002 132.929 37.51 132.24L33.4726 111.292L29.5529 132.24C21.0406 135.101 9.36572 129.88 9.36572 129.88C13.0835 96.0026 20.0145 90.9219 20.0145 90.9219C31.437 94.3768 47.1662 91.0313 47.1662 91.0313C55.2242 101.083 56.9233 130.849 56.9233 130.849Z" fill="#3B2645"/>
<path d="M1.77813 9.77148H1.62673C1.49215 9.09926 1.3071 8.20817 1.05476 7.17639C0.852887 6.426 -0.442456 3.45571 0.213627 2.90855C0.375939 2.80981 0.559793 2.74574 0.751951 2.72095L3.00618 2.34576C3.96101 2.11945 4.96168 2.11945 5.9165 2.34576C6.37018 2.54168 6.75039 2.85927 7.00822 3.25767C7.26605 3.65607 7.3897 4.11705 7.36325 4.58129C7.36325 7.39525 2.5688 9.38066 1.77813 9.77148Z" fill="#E0855C"/>
<path d="M1.812 4.95563C1.87877 5.11055 1.98227 5.24949 2.1148 5.3621C2.31522 5.4851 2.54777 5.55533 2.78771 5.56533C3.53526 5.6308 4.2891 5.59393 5.02512 5.4559C5.70818 5.37137 6.33543 5.06049 6.79149 4.58044C7.02926 4.26466 7.17445 3.89679 7.2128 3.51304C7.25114 3.12929 7.18132 2.74287 7.01019 2.39181C6.75708 1.83916 6.36546 1.35075 5.86798 0.967307C5.37051 0.583869 4.78159 0.316515 4.15034 0.187539C3.10734 -0.0313245 0.466183 0.0624742 0.0456171 1.26622C-0.173077 1.86028 0.449361 2.45434 0.752168 2.92333C1.05498 3.39232 1.50919 4.29904 1.812 4.95563Z" fill="#FBB99B"/>
<path d="M68.8004 4.95564C68.7335 5.11457 68.6234 5.25463 68.4807 5.3621C68.2815 5.48732 68.0482 5.55776 67.8078 5.56533C67.0659 5.6304 66.3176 5.59353 65.5872 5.4559C64.8824 5.37899 64.2313 5.06809 63.7536 4.58044C63.5153 4.26453 63.3712 3.89571 63.3358 3.51136C63.3003 3.12701 63.3748 2.74079 63.5517 2.39181C63.8032 1.841 64.1922 1.35377 64.6866 0.970458C65.181 0.587144 65.7665 0.318766 66.3947 0.187539C67.4545 -0.0313245 70.0957 0.0624742 70.5163 1.26622C70.735 1.86028 70.1125 2.45434 69.8097 2.92333C69.5069 3.39232 69.1704 4.29905 68.8004 4.95564Z" fill="#FBB99B"/>
<path d="M42.5574 133.491C40.8091 133.353 39.1008 132.929 37.5106 132.24L33.4731 111.292C33.4731 111.292 38.5199 117.998 42.5574 133.491Z" fill="#291B30"/>
<path d="M27.954 75.6802C27.9444 75.7633 27.9444 75.8472 27.954 75.9303C27.954 75.9303 28.1054 75.9303 28.0717 75.9303L27.954 75.6802Z" fill="#D6BED3"/>
<path d="M45.4671 59.4993C44.6945 57.1181 44.1705 54.6732 43.9026 52.1986C43.9026 52.1323 43.8743 52.0687 43.8238 52.0217C43.7733 51.9748 43.7049 51.9485 43.6335 51.9485C43.5621 51.9485 43.4936 51.9748 43.4432 52.0217C43.3927 52.0687 43.3643 52.1323 43.3643 52.1986C42.7755 56.7166 44.8279 62.2351 47.3849 66.0339C47.4292 66.0916 47.4932 66.1337 47.5665 66.1531C47.6398 66.1726 47.718 66.1684 47.7884 66.1411C47.8588 66.1139 47.9171 66.0652 47.9538 66.0032C47.9905 65.9411 48.0035 65.8692 47.9905 65.7994C47.3513 63.642 46.2242 61.6254 45.4671 59.4993Z" fill="#D6BED3"/>
<path d="M26.9457 51.3546C25.5662 53.3713 24.3886 55.513 23.0092 57.6078C21.6297 59.7027 20.0147 61.4849 18.8035 63.5797C18.7812 63.6066 18.7713 63.6407 18.7761 63.6744C18.7808 63.7082 18.7997 63.7387 18.8287 63.7595C18.8577 63.7802 18.8944 63.7894 18.9307 63.785C18.967 63.7806 18.9999 63.763 19.0222 63.736C22.6641 60.2209 25.5227 56.0716 27.4335 51.5266C27.5176 51.2764 27.0971 51.1201 26.9457 51.3546Z" fill="#D6BED3"/>
</svg>
