<svg width="19" height="19" viewBox="0 0 19 19" fill="none" xmlns="http://www.w3.org/2000/svg">
<circle cx="9.5" cy="9.5" r="7.125" stroke="#5B6172" stroke-width="1.5" stroke-linecap="round" stroke-linejoin="round"/>
<circle cx="9.5" cy="9.5" r="7.125" stroke="#1B2C56" stroke-width="1.5" stroke-linecap="round" stroke-linejoin="round"/>
<path d="M11.8598 8.81275C12.3916 9.11666 12.3916 9.88355 11.8598 10.1875L8.70544 11.9899C8.17767 12.2915 7.521 11.9104 7.521 11.3026L7.521 7.69762C7.521 7.08976 8.17767 6.70868 8.70544 7.01026L11.8598 8.81275Z" stroke="#5B6172" stroke-width="1.5" stroke-linecap="round" stroke-linejoin="round"/>
<path d="M11.8598 8.81275C12.3916 9.11666 12.3916 9.88355 11.8598 10.1875L8.70544 11.9899C8.17767 12.2915 7.521 11.9104 7.521 11.3026L7.521 7.69762C7.521 7.08976 8.17767 6.70868 8.70544 7.01026L11.8598 8.81275Z" stroke="#1B2C56" stroke-width="1.5" stroke-linecap="round" stroke-linejoin="round"/>
</svg>
