<svg width="72" height="116" viewBox="0 0 72 116" fill="none" xmlns="http://www.w3.org/2000/svg">
<path d="M23.6681 36.4725C23.6681 36.4725 20.2143 38.6671 16.9401 43.9855C13.666 49.3039 10.1723 54.306 10.1723 54.306C10.1723 54.306 8.8946 43.5308 9.49353 42.1072C10.0925 40.6837 12.2486 37.5401 12.7477 36.4725C13.2468 35.4048 15.6225 33.8825 15.6425 33.2696C15.6624 32.6566 15.4029 30.7388 15.3031 30.6795C15.2033 30.6202 14.0054 31.0552 13.8257 31.6879C13.686 32.1426 13.5862 32.538 13.5862 32.538C13.5862 32.538 11.9691 33.4277 11.6896 33.4475C11.4101 33.4673 10.0925 32.7753 10.0725 32.6566C10.0525 32.538 11.1705 29.9678 11.5099 29.8294C11.8493 29.691 13.7259 31.1343 14.0853 31.1343C14.4446 31.1343 15.2033 30.6598 15.2432 30.383C15.2831 30.1062 12.9074 27.6941 12.7078 27.6743C12.5081 27.6546 10.4718 27.2987 10.1923 27.4964C9.91278 27.6941 8.3955 28.999 8.3955 28.999C8.3955 28.999 8.3955 24.5109 8.3955 23.6015C8.3955 22.692 8.19586 19.8845 7.77661 19.6868C7.35737 19.5286 6.89819 19.4891 6.45898 19.5484C6.25934 19.6077 6.13956 20.8533 6.13956 20.8533C6.13956 20.8533 5.08146 20.6951 4.80196 20.9126C4.52246 21.1301 3.94351 29.6317 3.94351 29.7107C3.94351 29.7898 2.44619 27.9907 2.26652 27.6546C2.08684 27.3184 1.46795 25.2622 1.18845 25.1832C0.908957 25.1041 0.110393 25.0448 0.0105729 25.2425C-0.0892477 25.4402 0.549603 28.4059 0.589531 28.742C0.629459 29.0781 2.52605 33.0718 2.62587 33.6847C2.72569 34.2977 3.12498 39.4381 3.24476 40.486C3.36455 41.5339 2.02695 53.8513 1.72749 58.9918C1.42803 64.1323 1.68756 68.7389 2.00698 69.2134C2.32641 69.688 4.94171 71.3685 6.3392 70.6765C7.73669 69.9845 11.5898 66.9991 15.2632 63.5194C18.9366 60.0396 23.2688 55.4725 23.2688 55.4725L23.6681 36.4725Z" fill="#FBB99B"/>
<path d="M10.1528 54.2866C10.1528 54.2866 10.5122 57.0545 10.6519 59.5457C10.6519 59.5457 11.4305 57.1929 11.0512 52.9817L10.1528 54.2866Z" fill="#E0855C"/>
<path d="M3.72363 32.2812C3.70367 32.2812 3.6837 32.2812 3.66374 32.2614C3.62381 32.2219 3.62381 32.1625 3.66374 32.123C4.26266 31.4508 7.67654 29.3155 7.81628 29.2167C7.85621 29.1969 7.9161 29.1969 7.95603 29.2562C7.97599 29.2957 7.976 29.3551 7.91611 29.3946C7.87618 29.4144 4.38245 31.609 3.80349 32.2614C3.78352 32.2812 3.7436 32.2812 3.72363 32.2812Z" fill="#472938"/>
<path d="M6.33949 28.4847C6.31952 28.4847 6.33949 28.4847 6.33949 28.4847C6.2796 28.4847 6.23967 28.4452 6.23967 28.3859C6.23967 28.3265 6.47923 23.0674 6.41934 22.1184C6.35945 21.2287 6.07995 20.9717 6.07995 20.9717C6.04003 20.9322 6.04002 20.8728 6.05999 20.8333C6.09992 20.7938 6.15981 20.7938 6.19974 20.8135C6.23967 20.8333 6.53912 21.1299 6.59902 22.0986C6.65891 23.0674 6.41934 28.1881 6.41934 28.4056C6.41934 28.4452 6.37942 28.4847 6.33949 28.4847Z" fill="#472938"/>
<path d="M6.95773 36.7294C6.93777 36.7097 6.93777 36.7294 6.95773 36.7294C6.87787 36.7097 6.85791 36.6701 6.85791 36.6108C7.27716 34.2778 9.89245 32.6368 9.99227 32.5775C10.0322 32.5577 10.0921 32.5577 10.132 32.617C10.152 32.6566 10.152 32.7159 10.0921 32.7554C10.0721 32.7752 7.43687 34.4162 7.03759 36.6701C7.03759 36.6899 6.99766 36.7294 6.95773 36.7294Z" fill="#472938"/>
<path d="M52.2371 78.4268C52.2371 78.4268 62.7781 96.1021 62.7781 105.058C62.7781 114.015 53.7144 143.968 53.5547 148.001C53.395 152.035 56.6092 160.853 55.5911 169.75C54.5729 178.647 50.7398 192.724 50.7398 192.724C50.7398 192.724 45.589 193.495 42.4147 192.447C42.4147 192.447 42.275 165.993 40.3983 155.178C38.5217 144.363 37.0643 121.449 37.0643 121.449C37.0643 121.449 17.799 142.07 17.1801 145.49C16.5612 148.911 20.0948 151.165 21.7718 161.485C23.4488 171.806 25.3055 179.635 25.3055 179.635C25.3055 179.635 21.5123 184.064 17.1002 183.649C17.1002 183.649 0.669734 147.013 1.60805 142.228C2.54636 137.444 21.5522 102.211 22.251 98.0397C22.9497 93.868 23.4488 88.5693 24.3272 83.1323L52.2371 78.4268Z" fill="#AB8DA8"/>
<path d="M39.1799 90.309C45.8479 89.2018 51.1384 85.2476 54.3526 82.2028C53.1148 79.9094 52.2364 78.4463 52.2364 78.4463L24.3066 83.132C24.107 84.3579 23.9273 85.5837 23.7676 86.7897C26.343 88.7273 31.5736 91.5743 39.1799 90.309Z" fill="#3B2645"/>
<g opacity="0.5">
<path opacity="0.5" d="M37.0838 121.449V113.145C37.0838 113.145 34.5683 108.202 34.3287 104.07L34.9077 116.249L29.4375 129.871L37.0838 121.449Z" fill="#543753"/>
</g>
<path d="M24.3271 71.9422C24.9061 74.7695 24.3271 83.1327 24.3271 83.1327C24.3271 83.1327 25.7246 86.2367 33.2312 87.4625C40.7377 88.6883 52.237 78.4271 52.237 78.4271C51.1589 76.015 50.9793 73.2471 51.0591 71.1118C34.3092 68.5613 24.3271 71.9422 24.3271 71.9422Z" fill="#FBB99B"/>
<path d="M51.498 76.2124C51.1186 74.5318 50.9789 72.8315 51.0588 71.1114C49.0424 70.7951 47.1258 70.5776 45.3091 70.4194L45.7683 74.4132L51.498 76.2124Z" fill="#DE835C"/>
<path d="M34.1093 51.0039C44.6903 50.0549 47.9045 41.1381 48.8628 36.1558L46.0279 35.3649L32.2127 33.981L28.16 35.0091C26.0238 42.3046 24.9058 51.8145 34.1093 51.0039Z" fill="#FBB99B"/>
<path d="M56.8082 38.3108L52.5758 37.1641C49.9006 59.9799 54.9316 59.367 54.9316 59.367L56.329 55.7489L56.8082 38.3108Z" fill="#FBB99B"/>
<path d="M51.4182 67.6714C54.9918 64.508 54.9319 59.3675 54.9319 59.3675C54.9319 59.3675 49.881 59.9804 52.5761 37.1646L48.8628 36.1562C47.8846 41.1386 44.6704 50.0751 34.1093 51.0044C24.9059 51.815 26.0239 42.3051 28.18 35.0293L24.0075 36.0969C24.0075 36.0969 19.1562 51.7754 19.0165 57.4497C18.9166 61.0876 21.1127 66.0106 22.7298 69.0752C33.5703 64.508 51.4182 67.6714 51.4182 67.6714Z" fill="#AB8DA8"/>
<path d="M51.0586 71.1114C51.0985 69.9449 51.2183 68.7982 51.4379 67.6514C51.4379 67.6514 33.59 64.4881 22.7295 69.0552C23.6279 70.7753 24.3266 71.922 24.3266 71.922C24.3266 71.922 34.3087 68.5609 51.0586 71.1114Z" fill="#3B2645"/>
<path d="M52.5764 37.1445C52.5764 37.1445 54.5328 47.9396 47.3457 60.6326L46.5272 69.2528L47.226 88.9251C47.226 88.9251 44.0317 89.7752 42.3348 89.7752C40.6378 89.7752 38.2621 90.5463 38.2621 90.5463L37.9227 87.3632L36.1259 87.4027C36.1259 87.4027 35.6068 80.9375 37.8428 75.6389C40.0788 70.3402 41.1569 67.1373 41.5162 61.6805C41.8756 56.2237 40.6378 48.9083 44.7305 37.7772L52.5764 37.1445Z" fill="white"/>
<path d="M56.3491 55.7493L55.1513 51.2612L54.9517 59.3476L56.3491 55.7493Z" fill="#DE835C"/>
<path d="M33.1909 86.2561C33.4003 86.2561 33.5702 85.9994 33.5702 85.6827C33.5702 85.3661 33.4003 85.1094 33.1909 85.1094C32.9814 85.1094 32.8115 85.3661 32.8115 85.6827C32.8115 85.9994 32.9814 86.2561 33.1909 86.2561Z" fill="#DE835C"/>
<path d="M32.8914 27.7731C32.8914 27.7731 32.9712 35.9188 28.5392 46.7534C24.1071 57.588 23.7478 61.4038 24.7859 71.922C25.8241 82.4402 23.2686 90.843 23.2686 90.843C23.2686 90.843 11.4499 93.2748 6.7583 86.9678C6.7583 86.9678 12.5479 73.7607 15.1432 57.9834C17.7386 42.206 24.0073 36.0572 24.0073 36.0572C24.0073 36.0572 25.2052 32.6566 27.9203 33.0125C27.9203 33.052 30.1163 27.6347 32.8914 27.7731Z" fill="white"/>
<path d="M18.1185 80.3842C18.0586 80.3842 18.0187 80.3446 18.0187 80.2853C17.2201 65.5756 21.5323 52.2103 23.8482 45.0334L24.0079 44.5589C24.0279 44.4996 24.0877 44.4798 24.1277 44.4996C24.1876 44.5194 24.2075 44.5787 24.1876 44.6182L24.0279 45.0927C21.712 52.2696 17.4197 65.5954 18.2183 80.2655C18.2183 80.3446 18.1784 80.3842 18.1185 80.3842Z" fill="#472938"/>
<path d="M25.0458 41.6132H25.0259C24.966 41.5934 24.946 41.5341 24.966 41.4946C26.623 35.8598 27.8209 33.0523 27.8408 33.0325C27.8608 32.9732 27.9207 32.9535 27.9806 32.9732C28.0405 32.993 28.0604 33.0523 28.0405 33.1116C28.0205 33.1314 26.8227 35.9389 25.1856 41.5539C25.1257 41.5737 25.0858 41.6132 25.0458 41.6132Z" fill="#472938"/>
<path d="M17.7785 53.7719H17.7586C17.6987 53.7521 17.6787 53.7126 17.6787 53.6533C19.4156 46.9904 23.8676 36.1756 23.9075 36.057C23.9275 35.9976 23.9874 35.9779 24.0473 35.9976C24.1072 36.0174 24.1271 36.0767 24.1072 36.136C24.0672 36.2349 19.6152 47.0497 17.8784 53.6928C17.8784 53.7323 17.8384 53.7719 17.7785 53.7719Z" fill="#472938"/>
<path d="M37.9427 87.4818C37.8828 87.4818 37.8429 87.4423 37.8429 87.383C37.8429 87.3237 37.803 80.7201 39.1007 77.6556C39.1206 77.5963 39.1805 77.5765 39.2404 77.5963C39.3003 77.6161 39.3203 77.6754 39.3003 77.7347C38.0226 80.7597 38.0625 87.3237 38.0625 87.383C38.0425 87.4423 38.0026 87.4818 37.9427 87.4818Z" fill="#472938"/>
<path d="M40.019 86.3548C39.9591 86.3548 39.9191 86.3153 39.9191 86.256C39.9191 86.1966 39.6995 80.6805 40.8974 76.5286C42.0952 72.4162 42.4147 65.3974 42.4147 65.3381C42.4147 65.2788 42.4546 65.2393 42.5145 65.2393C42.5744 65.2393 42.6143 65.2788 42.6143 65.3381C42.6143 65.4172 42.2949 72.4359 41.097 76.5879C39.8992 80.7003 40.1188 86.1966 40.1188 86.2362C40.1188 86.2955 40.0788 86.3548 40.019 86.3548Z" fill="#472938"/>
<path d="M44.0915 77.4973C44.0716 77.4973 44.0716 77.4973 44.0915 77.4973C44.0117 77.4775 43.9917 77.4379 43.9917 77.3786C44.7703 73.3453 44.1514 65.0415 44.1514 64.9426C44.1514 64.8833 44.1913 64.8438 44.2512 64.8438C44.3111 64.8438 44.3511 64.8833 44.3511 64.9426C44.3511 65.0217 44.97 73.3651 44.1913 77.4182C44.1714 77.4577 44.1314 77.4973 44.0915 77.4973Z" fill="#472938"/>
<path d="M45.5686 61.5619C45.4887 61.5421 45.4688 61.5025 45.4688 61.4432C45.4887 61.3641 46.7265 53.8116 47.9243 50.3319C47.9443 50.2726 48.0042 50.2528 48.0441 50.2726C48.104 50.2923 48.124 50.3516 48.104 50.3912C46.9261 53.8511 45.6684 61.3839 45.6684 61.463C45.6684 61.5223 45.6285 61.5619 45.5686 61.5619Z" fill="#472938"/>
<path d="M44.0914 60.7316C44.0514 60.7316 44.0115 60.6921 43.9915 60.6525C43.9915 60.613 43.3327 57.2716 44.1912 51.2415C44.1912 51.1821 44.2511 51.1426 44.311 51.1624C44.3709 51.1624 44.4108 51.2217 44.3908 51.281C43.5523 57.2914 44.1912 60.5932 44.1912 60.6327C44.1912 60.6723 44.1513 60.7316 44.0914 60.7316Z" fill="#472938"/>
<path d="M45.9079 21.4863L46.0277 35.3656H32.0728L33.4104 22.9889L45.9079 21.4863Z" fill="#FBB99B"/>
<path d="M33.4111 22.9889C33.4111 22.9889 35.4475 36.1367 45.9686 28.426L45.9087 21.4863L33.4111 22.9889Z" fill="#E0855C"/>
<path d="M31.1664 20.8815C32.0678 20.6274 32.3825 18.974 31.8693 17.1887C31.3561 15.4033 30.2093 14.162 29.3079 14.4161C28.4065 14.6702 28.0918 16.3235 28.605 18.1089C29.1182 19.8943 30.265 21.1356 31.1664 20.8815Z" fill="#E0855C"/>
<path d="M45.9282 22.7912C45.9282 22.7912 45.8883 26.172 45.7286 28.4259C45.7286 28.4259 44.0915 33.5466 44.8302 38.3115C45.5689 43.0763 45.3293 46.5956 44.1714 48.2959L45.4691 47.683C45.4691 47.683 52.1171 47.7621 52.0372 38.1731C52.0372 38.1731 55.3912 32.7954 50.3603 26.4884C45.3293 20.1814 48.1642 16.7412 48.1642 16.7412C48.1642 16.7412 46.0879 17.7693 45.9282 22.7912Z" fill="#3B2645"/>
<path d="M48.1242 16.7212C48.1242 16.7212 46.0878 17.7691 45.9081 22.7909C45.9081 22.7909 45.8682 26.1718 45.7085 28.4257C46.5071 26.3299 47.1858 24.1947 47.7448 22.0198C46.6069 18.5599 48.1242 16.7212 48.1242 16.7212Z" fill="#3B2645"/>
<path d="M48.9603 17.8138C49.502 16.0368 49.2138 14.3788 48.3166 14.1106C47.4195 13.8424 46.253 15.0655 45.7113 16.8425C45.1696 18.6195 45.4578 20.2775 46.355 20.5457C47.2521 20.814 48.4186 19.5909 48.9603 17.8138Z" fill="#FBB99B"/>
<path d="M30.0168 7.94312C30.0168 7.94312 29.6575 18.2241 31.035 22.5342C32.4125 26.8443 35.8464 29.5727 38.1023 29.5727C40.3582 29.5727 44.7503 27.9515 46.4673 21.0316C48.1842 14.1117 47.9845 5.43219 40.6178 3.15851C33.251 0.884832 30.0168 5.64967 30.0168 7.94312Z" fill="#FBB99B"/>
<path d="M47.3057 15.3769C47.3057 15.3769 46.9064 12.5892 45.3891 11.0668C43.8718 9.54447 40.7574 8.51637 41.3364 6.08452C41.3364 6.08452 39.34 7.25102 35.7464 7.25102C32.1529 7.25102 29.6773 10.019 30.0367 14.7245L29.5775 14.4082C29.5775 14.4082 27.8606 7.72553 29.9568 4.48306C32.073 1.2406 37.0641 -0.815599 41.0968 0.311355C45.1296 1.43831 49.6614 4.10741 49.2621 9.32699C49.1424 10.9878 48.9028 12.6288 48.5434 14.25C48.5434 14.2302 47.3855 14.4082 47.3057 15.3769Z" fill="#3B2645"/>
<path d="M33.2307 16.1877C32.9113 16.1877 32.6518 15.9504 32.6318 15.6341L32.6118 15.2782C32.6118 14.9619 32.8514 14.7048 33.1708 14.6851C33.4902 14.6851 33.7498 14.9223 33.7697 15.2386L33.7897 15.5945C33.7897 15.9109 33.5501 16.1877 33.2307 16.1877Z" fill="#472938"/>
<path d="M42.155 16.4843C41.8356 16.4448 41.616 16.1482 41.6759 15.8319L41.7358 15.476C41.7757 15.1596 42.0752 14.9421 42.3946 15.0015C42.714 15.041 42.9336 15.3376 42.8737 15.6539L42.8138 16.0098C42.754 16.3261 42.4545 16.5238 42.155 16.4843Z" fill="#472938"/>
<path d="M31.1553 13.7755C31.1553 13.7755 31.6943 13.1824 32.952 13.1626C34.2098 13.1428 34.6091 13.2615 34.6889 12.866C34.7688 12.4706 32.0736 11.4623 31.1553 13.7755Z" fill="#472938"/>
<path d="M44.2713 13.5975C44.2713 13.5975 43.6724 13.0439 42.3148 13.1032C40.9572 13.1625 40.5579 13.3009 40.4581 12.9253C40.3583 12.5496 43.2132 11.3436 44.2713 13.5975Z" fill="#472938"/>
<path d="M40.7173 22.3361L35.4468 22.1582C35.4468 22.1582 35.7263 25.7368 38.082 25.6775C40.4378 25.6181 40.7173 22.3361 40.7173 22.3361Z" fill="white"/>
<path d="M37.763 20.7744C37.4236 20.7744 37.1042 20.6953 36.8446 20.5767C36.625 20.4581 36.5052 20.2999 36.4453 20.122C36.3256 19.6672 36.5651 18.5601 36.8446 17.1761L36.9444 16.7411C37.4036 14.507 36.1658 13.8941 36.106 13.8743C36.0461 13.8545 36.0261 13.7755 36.0461 13.7161C36.066 13.6568 36.1459 13.6371 36.2058 13.6568C36.2657 13.6766 37.6631 14.3686 37.164 16.7807L37.0642 17.2156C36.7847 18.5205 36.5651 19.6672 36.6649 20.0627C36.7049 20.1813 36.7847 20.2801 36.9444 20.379C37.3238 20.5767 37.9227 20.6163 38.4817 20.4383C38.5416 20.4185 38.6214 20.4581 38.6414 20.5174C38.6613 20.5767 38.6214 20.6558 38.5615 20.6756C38.302 20.7349 38.0225 20.7744 37.763 20.7744Z" fill="#472938"/>
<path d="M56.809 38.311C56.809 38.311 60.9815 38.5088 63.0578 44.4005C65.1341 50.2726 71.7023 67.3548 71.9618 70.4984C72.2213 73.642 71.2431 76.1727 66.7112 77.102C62.8582 77.8928 52.6366 74.9469 51.7981 74.8678C50.9596 74.7887 48.5838 74.7294 47.7853 73.3652C46.9867 72.001 46.5475 69.6878 46.5475 69.6878C46.5475 69.6878 44.4513 68.897 44.0919 68.897C43.7325 68.897 41.1971 69.0551 40.9575 68.6795C40.718 68.3038 40.718 67.5921 40.7978 67.256C40.7978 67.256 40.3586 66.4651 40.4984 65.9906C40.4984 65.9906 40.0392 64.8439 40.0791 64.5869C40.119 64.3298 41.3568 63.5785 41.6164 63.5192C41.8759 63.4599 44.8705 63.3413 44.8705 63.3413C44.8705 63.3413 43.9721 62.2539 43.8124 62.2143C43.6527 62.1748 41.5165 62.2539 41.5165 62.2539L41.4766 62.7877C41.4766 62.7877 40.8976 62.2934 40.7978 62.0166C40.698 61.7398 40.8777 60.9292 41.1173 60.8303C41.3568 60.7315 44.1917 59.8022 45.0502 60.0988C45.9086 60.3954 48.6437 62.0561 49.0031 62.6097C49.3624 63.1633 51.3788 68.719 52.0177 69.1342C52.6565 69.5494 55.9306 70.0041 61.1612 68.897L53.7146 50.2528L56.809 38.311Z" fill="#FBB99B"/>
</svg>
