<svg width="16" height="18" viewBox="0 0 16 18" fill="none" xmlns="http://www.w3.org/2000/svg">
<path fill-rule="evenodd" clip-rule="evenodd" d="M7.83506 4.47422C6.91406 4.47422 6.16743 3.69649 6.16743 2.73711C6.16743 1.77773 6.91406 1 7.83506 1C8.75606 1 9.50269 1.77773 9.50269 2.73711C9.50269 3.69649 8.75606 4.47422 7.83506 4.47422Z" fill="#5B6172"/>
<path fill-rule="evenodd" clip-rule="evenodd" d="M7.83506 4.47422C6.91406 4.47422 6.16743 3.69649 6.16743 2.73711C6.16743 1.77773 6.91406 1 7.83506 1C8.75606 1 9.50269 1.77773 9.50269 2.73711C9.50269 3.69649 8.75606 4.47422 7.83506 4.47422Z" fill="#1B2C56"/>
<path fill-rule="evenodd" clip-rule="evenodd" d="M7.83506 4.47422C6.91406 4.47422 6.16743 3.69649 6.16743 2.73711C6.16743 1.77773 6.91406 1 7.83506 1C8.75606 1 9.50269 1.77773 9.50269 2.73711C9.50269 3.69649 8.75606 4.47422 7.83506 4.47422Z" stroke="#5B6172" stroke-linecap="round" stroke-linejoin="round"/>
<path fill-rule="evenodd" clip-rule="evenodd" d="M7.83506 4.47422C6.91406 4.47422 6.16743 3.69649 6.16743 2.73711C6.16743 1.77773 6.91406 1 7.83506 1C8.75606 1 9.50269 1.77773 9.50269 2.73711C9.50269 3.69649 8.75606 4.47422 7.83506 4.47422Z" stroke="#1B2C56" stroke-linecap="round" stroke-linejoin="round"/>
<path fill-rule="evenodd" clip-rule="evenodd" d="M2.51787 8.78719C2.99882 6.3059 4.69379 6.03074 6.50083 5.68958C7.2894 5.54083 8.10236 5.7259 8.75946 6.20376L10.4364 7.4246C10.7374 7.64427 11.1297 7.67441 11.4583 7.50312L11.7252 7.36415C12.2196 7.10684 12.8206 7.31574 13.0676 7.83074C13.3146 8.34573 13.1141 8.97181 12.6197 9.22911L12.3529 9.36808C11.3674 9.88161 10.1911 9.79145 9.28843 9.13322L9.17103 9.04776V10.2985L10.293 11.4672C10.8566 12.0521 11.1724 12.8474 11.1702 13.6761V15.9392C11.1702 16.5148 10.7222 16.9815 10.1696 16.9815C9.61701 16.9815 9.16903 16.5148 9.16903 15.9392V13.6761C9.16982 13.3995 9.06438 13.134 8.8762 12.9389L7.83493 11.8542V12.736C7.83507 13.4825 7.57882 14.2044 7.11252 14.7712L5.59298 16.6174C5.36321 16.9102 4.99918 17.0504 4.6418 16.9837C4.28441 16.917 3.98975 16.6539 3.87187 16.2962C3.75399 15.9385 3.83139 15.5423 4.0741 15.2611L5.59298 13.4149C5.74851 13.2258 5.83393 12.985 5.83378 12.736V7.93392L5.3495 8.02564C4.94585 8.10125 4.62806 8.42704 4.54904 8.84625L4.48234 9.19367C4.41251 9.55896 4.1609 9.8577 3.82229 9.97736C3.48368 10.097 3.10951 10.0194 2.84073 9.77377C2.57195 9.52813 2.44938 9.15179 2.51921 8.7865L2.51787 8.78719Z" fill="#5B6172"/>
<path fill-rule="evenodd" clip-rule="evenodd" d="M2.51787 8.78719C2.99882 6.3059 4.69379 6.03074 6.50083 5.68958C7.2894 5.54083 8.10236 5.7259 8.75946 6.20376L10.4364 7.4246C10.7374 7.64427 11.1297 7.67441 11.4583 7.50312L11.7252 7.36415C12.2196 7.10684 12.8206 7.31574 13.0676 7.83074C13.3146 8.34573 13.1141 8.97181 12.6197 9.22911L12.3529 9.36808C11.3674 9.88161 10.1911 9.79145 9.28843 9.13322L9.17103 9.04776V10.2985L10.293 11.4672C10.8566 12.0521 11.1724 12.8474 11.1702 13.6761V15.9392C11.1702 16.5148 10.7222 16.9815 10.1696 16.9815C9.61701 16.9815 9.16903 16.5148 9.16903 15.9392V13.6761C9.16982 13.3995 9.06438 13.134 8.8762 12.9389L7.83493 11.8542V12.736C7.83507 13.4825 7.57882 14.2044 7.11252 14.7712L5.59298 16.6174C5.36321 16.9102 4.99918 17.0504 4.6418 16.9837C4.28441 16.917 3.98975 16.6539 3.87187 16.2962C3.75399 15.9385 3.83139 15.5423 4.0741 15.2611L5.59298 13.4149C5.74851 13.2258 5.83393 12.985 5.83378 12.736V7.93392L5.3495 8.02564C4.94585 8.10125 4.62806 8.42704 4.54904 8.84625L4.48234 9.19367C4.41251 9.55896 4.1609 9.8577 3.82229 9.97736C3.48368 10.097 3.10951 10.0194 2.84073 9.77377C2.57195 9.52813 2.44938 9.15179 2.51921 8.7865L2.51787 8.78719Z" fill="#1B2C56"/>
<path fill-rule="evenodd" clip-rule="evenodd" d="M2.51787 8.78719C2.99882 6.3059 4.69379 6.03074 6.50083 5.68958C7.2894 5.54083 8.10236 5.7259 8.75946 6.20376L10.4364 7.4246C10.7374 7.64427 11.1297 7.67441 11.4583 7.50312L11.7252 7.36415C12.2196 7.10684 12.8206 7.31574 13.0676 7.83074C13.3146 8.34573 13.1141 8.97181 12.6197 9.22911L12.3529 9.36808C11.3674 9.88161 10.1911 9.79145 9.28843 9.13322L9.17103 9.04776V10.2985L10.293 11.4672C10.8566 12.0521 11.1724 12.8474 11.1702 13.6761V15.9392C11.1702 16.5148 10.7222 16.9815 10.1696 16.9815C9.61701 16.9815 9.16903 16.5148 9.16903 15.9392V13.6761C9.16982 13.3995 9.06438 13.134 8.8762 12.9389L7.83493 11.8542V12.736C7.83507 13.4825 7.57882 14.2044 7.11252 14.7712L5.59298 16.6174C5.36321 16.9102 4.99918 17.0504 4.6418 16.9837C4.28441 16.917 3.98975 16.6539 3.87187 16.2962C3.75399 15.9385 3.83139 15.5423 4.0741 15.2611L5.59298 13.4149C5.74851 13.2258 5.83393 12.985 5.83378 12.736V7.93392L5.3495 8.02564C4.94585 8.10125 4.62806 8.42704 4.54904 8.84625L4.48234 9.19367C4.41251 9.55896 4.1609 9.8577 3.82229 9.97736C3.48368 10.097 3.10951 10.0194 2.84073 9.77377C2.57195 9.52813 2.44938 9.15179 2.51921 8.7865L2.51787 8.78719Z" stroke="#5B6172" stroke-linecap="round" stroke-linejoin="round"/>
<path fill-rule="evenodd" clip-rule="evenodd" d="M2.51787 8.78719C2.99882 6.3059 4.69379 6.03074 6.50083 5.68958C7.2894 5.54083 8.10236 5.7259 8.75946 6.20376L10.4364 7.4246C10.7374 7.64427 11.1297 7.67441 11.4583 7.50312L11.7252 7.36415C12.2196 7.10684 12.8206 7.31574 13.0676 7.83074C13.3146 8.34573 13.1141 8.97181 12.6197 9.22911L12.3529 9.36808C11.3674 9.88161 10.1911 9.79145 9.28843 9.13322L9.17103 9.04776V10.2985L10.293 11.4672C10.8566 12.0521 11.1724 12.8474 11.1702 13.6761V15.9392C11.1702 16.5148 10.7222 16.9815 10.1696 16.9815C9.61701 16.9815 9.16903 16.5148 9.16903 15.9392V13.6761C9.16982 13.3995 9.06438 13.134 8.8762 12.9389L7.83493 11.8542V12.736C7.83507 13.4825 7.57882 14.2044 7.11252 14.7712L5.59298 16.6174C5.36321 16.9102 4.99918 17.0504 4.6418 16.9837C4.28441 16.917 3.98975 16.6539 3.87187 16.2962C3.75399 15.9385 3.83139 15.5423 4.0741 15.2611L5.59298 13.4149C5.74851 13.2258 5.83393 12.985 5.83378 12.736V7.93392L5.3495 8.02564C4.94585 8.10125 4.62806 8.42704 4.54904 8.84625L4.48234 9.19367C4.41251 9.55896 4.1609 9.8577 3.82229 9.97736C3.48368 10.097 3.10951 10.0194 2.84073 9.77377C2.57195 9.52813 2.44938 9.15179 2.51921 8.7865L2.51787 8.78719Z" stroke="#1B2C56" stroke-linecap="round" stroke-linejoin="round"/>
</svg>
