<svg width="20" height="19" viewBox="0 0 20 19" fill="none" xmlns="http://www.w3.org/2000/svg">
<path d="M11.5 9.5C11.5 10.33 10.83 11 10 11C9.17 11 8.5 10.33 8.5 9.5C8.5 8.67 9.17 8 10 8C10.83 8 11.5 8.67 11.5 9.5ZM19.5 9.5C19.5 14.74 15.24 19 10 19C4.76 19 0.5 14.74 0.5 9.5C0.5 4.26 4.76 0 10 0C15.24 0 19.5 4.26 19.5 9.5ZM14.69 4.81006C14.31 4.44006 13.78 4.28992 13.26 4.41992L9.20999 5.42993C7.58999 5.83993 6.33999 7.08996 5.92999 8.70996L4.92001 12.76C4.79001 13.28 4.94 13.8099 5.31 14.1899C5.6 14.4699 5.98 14.6299 6.37 14.6299C6.49 14.6299 6.61999 14.6101 6.73999 14.5801L10.79 13.5701C12.41 13.1601 13.66 11.91 14.07 10.29L15.08 6.23999C15.21 5.71999 15.06 5.19006 14.69 4.81006Z" fill="#98A1B6"/>
</svg>
