<svg width="23" height="23" viewBox="0 0 23 23" fill="none" xmlns="http://www.w3.org/2000/svg">
<path fill-rule="evenodd" clip-rule="evenodd" d="M11.5011 6.91658C12.7668 6.91658 13.7928 5.89057 13.7928 4.62492C13.7928 3.35927 12.7668 2.33325 11.5011 2.33325C10.2355 2.33325 9.20947 3.35927 9.20947 4.62492C9.20947 5.89057 10.2355 6.91658 11.5011 6.91658Z" fill="#5B6172"/>
<path fill-rule="evenodd" clip-rule="evenodd" d="M11.5011 6.91658C12.7668 6.91658 13.7928 5.89057 13.7928 4.62492C13.7928 3.35927 12.7668 2.33325 11.5011 2.33325C10.2355 2.33325 9.20947 3.35927 9.20947 4.62492C9.20947 5.89057 10.2355 6.91658 11.5011 6.91658Z" fill="#98A1B6"/>
<path fill-rule="evenodd" clip-rule="evenodd" d="M11.5011 6.91658C12.7668 6.91658 13.7928 5.89057 13.7928 4.62492C13.7928 3.35927 12.7668 2.33325 11.5011 2.33325C10.2355 2.33325 9.20947 3.35927 9.20947 4.62492C9.20947 5.89057 10.2355 6.91658 11.5011 6.91658Z" stroke="#5B6172" stroke-width="0.5" stroke-linecap="round" stroke-linejoin="round"/>
<path fill-rule="evenodd" clip-rule="evenodd" d="M11.5011 6.91658C12.7668 6.91658 13.7928 5.89057 13.7928 4.62492C13.7928 3.35927 12.7668 2.33325 11.5011 2.33325C10.2355 2.33325 9.20947 3.35927 9.20947 4.62492C9.20947 5.89057 10.2355 6.91658 11.5011 6.91658Z" stroke="#98A1B6" stroke-width="0.5" stroke-linecap="round" stroke-linejoin="round"/>
<path fill-rule="evenodd" clip-rule="evenodd" d="M19.2915 17.9167H15.381L13.0683 14.9439C12.943 14.783 12.8749 14.585 12.8748 14.3811V11.5H20.2082C20.9676 11.5 21.5832 10.8844 21.5832 10.125C21.5832 9.36561 20.9676 8.75 20.2082 8.75H2.7915C2.03211 8.75 1.4165 9.36561 1.4165 10.125C1.4165 10.8844 2.03211 11.5 2.7915 11.5H10.1248V13.7917H8.2915C6.51959 13.7917 5.08317 15.2281 5.08317 17V19.2917C5.08317 20.0511 5.69878 20.6667 6.45817 20.6667C7.21756 20.6667 7.83317 20.0511 7.83317 19.2917V17C7.83317 16.7469 8.03837 16.5417 8.2915 16.5417H10.8279L13.6238 20.1359C13.8841 20.4706 14.2842 20.6664 14.7082 20.6667H19.2915C20.0509 20.6667 20.6665 20.0511 20.6665 19.2917C20.6665 18.5323 20.0509 17.9167 19.2915 17.9167Z" fill="#5B6172"/>
<path fill-rule="evenodd" clip-rule="evenodd" d="M19.2915 17.9167H15.381L13.0683 14.9439C12.943 14.783 12.8749 14.585 12.8748 14.3811V11.5H20.2082C20.9676 11.5 21.5832 10.8844 21.5832 10.125C21.5832 9.36561 20.9676 8.75 20.2082 8.75H2.7915C2.03211 8.75 1.4165 9.36561 1.4165 10.125C1.4165 10.8844 2.03211 11.5 2.7915 11.5H10.1248V13.7917H8.2915C6.51959 13.7917 5.08317 15.2281 5.08317 17V19.2917C5.08317 20.0511 5.69878 20.6667 6.45817 20.6667C7.21756 20.6667 7.83317 20.0511 7.83317 19.2917V17C7.83317 16.7469 8.03837 16.5417 8.2915 16.5417H10.8279L13.6238 20.1359C13.8841 20.4706 14.2842 20.6664 14.7082 20.6667H19.2915C20.0509 20.6667 20.6665 20.0511 20.6665 19.2917C20.6665 18.5323 20.0509 17.9167 19.2915 17.9167Z" fill="#98A1B6"/>
<path fill-rule="evenodd" clip-rule="evenodd" d="M19.2915 17.9167H15.381L13.0683 14.9439C12.943 14.783 12.8749 14.585 12.8748 14.3811V11.5H20.2082C20.9676 11.5 21.5832 10.8844 21.5832 10.125C21.5832 9.36561 20.9676 8.75 20.2082 8.75H2.7915C2.03211 8.75 1.4165 9.36561 1.4165 10.125C1.4165 10.8844 2.03211 11.5 2.7915 11.5H10.1248V13.7917H8.2915C6.51959 13.7917 5.08317 15.2281 5.08317 17V19.2917C5.08317 20.0511 5.69878 20.6667 6.45817 20.6667C7.21756 20.6667 7.83317 20.0511 7.83317 19.2917V17C7.83317 16.7469 8.03837 16.5417 8.2915 16.5417H10.8279L13.6238 20.1359C13.8841 20.4706 14.2842 20.6664 14.7082 20.6667H19.2915C20.0509 20.6667 20.6665 20.0511 20.6665 19.2917C20.6665 18.5323 20.0509 17.9167 19.2915 17.9167Z" stroke="#5B6172" stroke-width="0.5" stroke-linecap="round" stroke-linejoin="round"/>
<path fill-rule="evenodd" clip-rule="evenodd" d="M19.2915 17.9167H15.381L13.0683 14.9439C12.943 14.783 12.8749 14.585 12.8748 14.3811V11.5H20.2082C20.9676 11.5 21.5832 10.8844 21.5832 10.125C21.5832 9.36561 20.9676 8.75 20.2082 8.75H2.7915C2.03211 8.75 1.4165 9.36561 1.4165 10.125C1.4165 10.8844 2.03211 11.5 2.7915 11.5H10.1248V13.7917H8.2915C6.51959 13.7917 5.08317 15.2281 5.08317 17V19.2917C5.08317 20.0511 5.69878 20.6667 6.45817 20.6667C7.21756 20.6667 7.83317 20.0511 7.83317 19.2917V17C7.83317 16.7469 8.03837 16.5417 8.2915 16.5417H10.8279L13.6238 20.1359C13.8841 20.4706 14.2842 20.6664 14.7082 20.6667H19.2915C20.0509 20.6667 20.6665 20.0511 20.6665 19.2917C20.6665 18.5323 20.0509 17.9167 19.2915 17.9167Z" stroke="#98A1B6" stroke-width="0.5" stroke-linecap="round" stroke-linejoin="round"/>
</svg>
