<svg width="22" height="23" viewBox="0 0 22 23" fill="none" xmlns="http://www.w3.org/2000/svg">
<path fill-rule="evenodd" clip-rule="evenodd" d="M11.0007 6.91658C12.2663 6.91658 13.2923 5.89057 13.2923 4.62492C13.2923 3.35927 12.2663 2.33325 11.0007 2.33325C9.735 2.33325 8.70898 3.35927 8.70898 4.62492C8.70898 5.89057 9.735 6.91658 11.0007 6.91658Z" fill="#5B6172"/>
<path fill-rule="evenodd" clip-rule="evenodd" d="M11.0007 6.91658C12.2663 6.91658 13.2923 5.89057 13.2923 4.62492C13.2923 3.35927 12.2663 2.33325 11.0007 2.33325C9.735 2.33325 8.70898 3.35927 8.70898 4.62492C8.70898 5.89057 9.735 6.91658 11.0007 6.91658Z" fill="#1B2C56"/>
<path fill-rule="evenodd" clip-rule="evenodd" d="M11.0007 6.91658C12.2663 6.91658 13.2923 5.89057 13.2923 4.62492C13.2923 3.35927 12.2663 2.33325 11.0007 2.33325C9.735 2.33325 8.70898 3.35927 8.70898 4.62492C8.70898 5.89057 9.735 6.91658 11.0007 6.91658Z" stroke="#5B6172" stroke-linecap="round" stroke-linejoin="round"/>
<path fill-rule="evenodd" clip-rule="evenodd" d="M11.0007 6.91658C12.2663 6.91658 13.2923 5.89057 13.2923 4.62492C13.2923 3.35927 12.2663 2.33325 11.0007 2.33325C9.735 2.33325 8.70898 3.35927 8.70898 4.62492C8.70898 5.89057 9.735 6.91658 11.0007 6.91658Z" stroke="#1B2C56" stroke-linecap="round" stroke-linejoin="round"/>
<path fill-rule="evenodd" clip-rule="evenodd" d="M18.792 17.9167H14.8815L12.5687 14.9439C12.4435 14.783 12.3754 14.585 12.3753 14.3811V11.5H19.7087C20.4681 11.5 21.0837 10.8844 21.0837 10.125C21.0837 9.36561 20.4681 8.75 19.7087 8.75H2.29199C1.5326 8.75 0.916992 9.36561 0.916992 10.125C0.916992 10.8844 1.5326 11.5 2.29199 11.5H9.62533V13.7917H7.79199C6.02008 13.7917 4.58366 15.2281 4.58366 17V19.2917C4.58366 20.0511 5.19927 20.6667 5.95866 20.6667C6.71805 20.6667 7.33366 20.0511 7.33366 19.2917V17C7.33366 16.7469 7.53886 16.5417 7.79199 16.5417H10.3284L13.1242 20.1359C13.3846 20.4706 13.7847 20.6664 14.2087 20.6667H18.792C19.5514 20.6667 20.167 20.0511 20.167 19.2917C20.167 18.5323 19.5514 17.9167 18.792 17.9167Z" fill="#5B6172"/>
<path fill-rule="evenodd" clip-rule="evenodd" d="M18.792 17.9167H14.8815L12.5687 14.9439C12.4435 14.783 12.3754 14.585 12.3753 14.3811V11.5H19.7087C20.4681 11.5 21.0837 10.8844 21.0837 10.125C21.0837 9.36561 20.4681 8.75 19.7087 8.75H2.29199C1.5326 8.75 0.916992 9.36561 0.916992 10.125C0.916992 10.8844 1.5326 11.5 2.29199 11.5H9.62533V13.7917H7.79199C6.02008 13.7917 4.58366 15.2281 4.58366 17V19.2917C4.58366 20.0511 5.19927 20.6667 5.95866 20.6667C6.71805 20.6667 7.33366 20.0511 7.33366 19.2917V17C7.33366 16.7469 7.53886 16.5417 7.79199 16.5417H10.3284L13.1242 20.1359C13.3846 20.4706 13.7847 20.6664 14.2087 20.6667H18.792C19.5514 20.6667 20.167 20.0511 20.167 19.2917C20.167 18.5323 19.5514 17.9167 18.792 17.9167Z" fill="#1B2C56"/>
</svg>
